<svg xmlns="http://www.w3.org/2000/svg" xmlns:xlink="http://www.w3.org/1999/xlink" contentStyleType="text/css" height="604px" preserveAspectRatio="none" style="width:476px;height:604px;background:#FFFFFF;" version="1.1" viewBox="0 0 476 604" width="476px" zoomAndPan="magnify"><defs/><g><rect fill="none" height="176.8633" style="stroke:#000000;stroke-width:1.5;" width="460.3496" x="10" y="329.6621"/><line style="stroke:#181818;stroke-width:0.5;stroke-dasharray:5.0,5.0;" x1="56" x2="56" y1="81.4883" y2="523.5254"/><line style="stroke:#181818;stroke-width:0.5;stroke-dasharray:5.0,5.0;" x1="269.5718" x2="269.5718" y1="81.4883" y2="523.5254"/><text fill="#000000" font-family="sans-serif" font-size="14" lengthAdjust="spacing" textLength="67.0264" x="20" y="78.5352">CarOwner</text><ellipse cx="56.5132" cy="13.5" fill="#E2E2F0" rx="8" ry="8" style="stroke:#181818;stroke-width:0.5;"/><path d="M56.5132,21.5 L56.5132,48.5 M43.5132,29.5 L69.5132,29.5 M56.5132,48.5 L43.5132,63.5 M56.5132,48.5 L69.5132,63.5 " fill="none" style="stroke:#181818;stroke-width:0.5;"/><text fill="#000000" font-family="sans-serif" font-size="14" lengthAdjust="spacing" textLength="67.0264" x="20" y="536.0605">CarOwner</text><ellipse cx="56.5132" cy="547.5137" fill="#E2E2F0" rx="8" ry="8" style="stroke:#181818;stroke-width:0.5;"/><path d="M56.5132,555.5137 L56.5132,582.5137 M43.5132,563.5137 L69.5132,563.5137 M56.5132,582.5137 L43.5132,597.5137 M56.5132,582.5137 L69.5132,597.5137 " fill="none" style="stroke:#181818;stroke-width:0.5;"/><rect fill="#E2E2F0" height="30.4883" rx="2.5" ry="2.5" style="stroke:#181818;stroke-width:0.5;" width="41.2822" x="249.5718" y="50"/><text fill="#000000" font-family="sans-serif" font-size="14" lengthAdjust="spacing" textLength="27.2822" x="256.5718" y="70.5352">App</text><rect fill="#E2E2F0" height="30.4883" rx="2.5" ry="2.5" style="stroke:#181818;stroke-width:0.5;" width="41.2822" x="249.5718" y="522.5254"/><text fill="#000000" font-family="sans-serif" font-size="14" lengthAdjust="spacing" textLength="27.2822" x="256.5718" y="543.0605">App</text><polygon fill="#181818" points="258.2129,108.7988,268.2129,112.7988,258.2129,116.7988,262.2129,112.7988" style="stroke:#181818;stroke-width:1.0;"/><line style="stroke:#181818;stroke-width:1.0;" x1="56.5132" x2="264.2129" y1="112.7988" y2="112.7988"/><text fill="#000000" font-family="sans-serif" font-size="13" lengthAdjust="spacing" textLength="120.269" x="63.5132" y="108.0566">Open Home Screen</text><polygon fill="#181818" points="258.2129,138.1094,268.2129,142.1094,258.2129,146.1094,262.2129,142.1094" style="stroke:#181818;stroke-width:1.0;"/><line style="stroke:#181818;stroke-width:1.0;" x1="56.5132" x2="264.2129" y1="142.1094" y2="142.1094"/><text fill="#000000" font-family="sans-serif" font-size="13" lengthAdjust="spacing" textLength="189.6997" x="63.5132" y="137.3672">Navigates Company Messages</text><line style="stroke:#181818;stroke-width:1.0;" x1="270.2129" x2="312.2129" y1="171.4199" y2="171.4199"/><line style="stroke:#181818;stroke-width:1.0;" x1="312.2129" x2="312.2129" y1="171.4199" y2="184.4199"/><line style="stroke:#181818;stroke-width:1.0;" x1="271.2129" x2="312.2129" y1="184.4199" y2="184.4199"/><polygon fill="#181818" points="281.2129,180.4199,271.2129,184.4199,281.2129,188.4199,277.2129,184.4199" style="stroke:#181818;stroke-width:1.0;"/><text fill="#000000" font-family="sans-serif" font-size="13" lengthAdjust="spacing" textLength="136.1763" x="277.2129" y="166.6777">Load list of messages</text><polygon fill="#181818" points="67.5132,209.7305,57.5132,213.7305,67.5132,217.7305,63.5132,213.7305" style="stroke:#181818;stroke-width:1.0;"/><line style="stroke:#181818;stroke-width:1.0;" x1="61.5132" x2="269.2129" y1="213.7305" y2="213.7305"/><text fill="#000000" font-family="sans-serif" font-size="13" lengthAdjust="spacing" textLength="164.5376" x="73.5132" y="208.9883">Display message previews</text><polygon fill="#181818" points="258.2129,239.041,268.2129,243.041,258.2129,247.041,262.2129,243.041" style="stroke:#181818;stroke-width:1.0;"/><line style="stroke:#181818;stroke-width:1.0;" x1="56.5132" x2="264.2129" y1="243.041" y2="243.041"/><text fill="#000000" font-family="sans-serif" font-size="13" lengthAdjust="spacing" textLength="107.3325" x="63.5132" y="238.2988">Select a message</text><line style="stroke:#181818;stroke-width:1.0;" x1="270.2129" x2="312.2129" y1="272.3516" y2="272.3516"/><line style="stroke:#181818;stroke-width:1.0;" x1="312.2129" x2="312.2129" y1="272.3516" y2="285.3516"/><line style="stroke:#181818;stroke-width:1.0;" x1="271.2129" x2="312.2129" y1="285.3516" y2="285.3516"/><polygon fill="#181818" points="281.2129,281.3516,271.2129,285.3516,281.2129,289.3516,277.2129,285.3516" style="stroke:#181818;stroke-width:1.0;"/><text fill="#000000" font-family="sans-serif" font-size="13" lengthAdjust="spacing" textLength="141.4131" x="277.2129" y="267.6094">Load message content</text><polygon fill="#181818" points="67.5132,310.6621,57.5132,314.6621,67.5132,318.6621,63.5132,314.6621" style="stroke:#181818;stroke-width:1.0;"/><line style="stroke:#181818;stroke-width:1.0;" x1="61.5132" x2="269.2129" y1="314.6621" y2="314.6621"/><text fill="#000000" font-family="sans-serif" font-size="13" lengthAdjust="spacing" textLength="129.7842" x="73.5132" y="309.9199">Display full message</text><path d="M10,329.6621 L72.1387,329.6621 L72.1387,336.9727 L62.1387,346.9727 L10,346.9727 L10,329.6621 " fill="#EEEEEE" style="stroke:#000000;stroke-width:1.5;"/><rect fill="none" height="176.8633" style="stroke:#000000;stroke-width:1.5;" width="460.3496" x="10" y="329.6621"/><text fill="#000000" font-family="sans-serif" font-size="13" font-weight="bold" lengthAdjust="spacing" textLength="17.1387" x="25" y="343.2305">alt</text><text fill="#000000" font-family="sans-serif" font-size="11" font-weight="bold" lengthAdjust="spacing" textLength="176.7573" x="87.1387" y="342.2969">[Send a Reply or New Message]</text><polygon fill="#181818" points="258.2129,364.2832,268.2129,368.2832,258.2129,372.2832,262.2129,368.2832" style="stroke:#181818;stroke-width:1.0;"/><line style="stroke:#181818;stroke-width:1.0;" x1="56.5132" x2="264.2129" y1="368.2832" y2="368.2832"/><text fill="#000000" font-family="sans-serif" font-size="13" lengthAdjust="spacing" textLength="188.043" x="63.5132" y="363.541">Tap "Reply" or "New Message"</text><polygon fill="#181818" points="258.2129,393.5938,268.2129,397.5938,258.2129,401.5938,262.2129,397.5938" style="stroke:#181818;stroke-width:1.0;"/><line style="stroke:#181818;stroke-width:1.0;" x1="56.5132" x2="264.2129" y1="397.5938" y2="397.5938"/><text fill="#000000" font-family="sans-serif" font-size="13" lengthAdjust="spacing" textLength="89.7114" x="63.5132" y="392.8516">Type message</text><polygon fill="#181818" points="258.2129,422.9043,268.2129,426.9043,258.2129,430.9043,262.2129,426.9043" style="stroke:#181818;stroke-width:1.0;"/><line style="stroke:#181818;stroke-width:1.0;" x1="56.5132" x2="264.2129" y1="426.9043" y2="426.9043"/><text fill="#000000" font-family="sans-serif" font-size="13" lengthAdjust="spacing" textLength="89.7686" x="63.5132" y="422.1621">Send message</text><line style="stroke:#181818;stroke-width:1.0;" x1="270.2129" x2="312.2129" y1="456.2148" y2="456.2148"/><line style="stroke:#181818;stroke-width:1.0;" x1="312.2129" x2="312.2129" y1="456.2148" y2="469.2148"/><line style="stroke:#181818;stroke-width:1.0;" x1="271.2129" x2="312.2129" y1="469.2148" y2="469.2148"/><polygon fill="#181818" points="281.2129,465.2148,271.2129,469.2148,281.2129,473.2148,277.2129,469.2148" style="stroke:#181818;stroke-width:1.0;"/><text fill="#000000" font-family="sans-serif" font-size="13" lengthAdjust="spacing" textLength="181.1367" x="277.2129" y="451.4727">Deliver message to company</text><polygon fill="#181818" points="67.5132,494.5254,57.5132,498.5254,67.5132,502.5254,63.5132,498.5254" style="stroke:#181818;stroke-width:1.0;"/><line style="stroke:#181818;stroke-width:1.0;" x1="61.5132" x2="269.2129" y1="498.5254" y2="498.5254"/><text fill="#000000" font-family="sans-serif" font-size="13" lengthAdjust="spacing" textLength="117.7427" x="73.5132" y="493.7832">Show confirmation</text><!--SRC=[VP6nRiCm34HtVSN1UtyWGu4W6JAq2H3t1mY7JWN88Y6fDlptbGt8S1AtcZIyk-EHr2G9E52u39w3CUM7jtViLR73HTdZ91sZRWAptq3ErDix9OuuIAVaHtnoZ7JdQ2PWuJw4Rd0s9aYBxWbPR7SusgYEne900_UMXxWrNisEcmGgy4PYiMd49_Rfdy3snxd5o91BsTxVilcLrOt8cphpKCePvFSwq1Sfgfcl9a6rKbH_IKRb9NORcUTO8myrZ-nid_7ID4akErzYpQuArzyoJFjeRUWeMV4c-vjV]--></g></svg>