<svg xmlns="http://www.w3.org/2000/svg" xmlns:xlink="http://www.w3.org/1999/xlink" contentStyleType="text/css" height="608px" preserveAspectRatio="none" style="width:499px;height:608px;background:#FFFFFF;" version="1.1" viewBox="0 0 499 608" width="499px" zoomAndPan="magnify"><defs/><g><rect fill="none" height="234.1289" style="stroke:#000000;stroke-width:1.5;" width="482.3315" x="10" y="186.4199"/><rect fill="none" height="75.9316" style="stroke:#000000;stroke-width:1.5;" width="316.9492" x="10" y="434.5488"/><line style="stroke:#181818;stroke-width:0.5;stroke-dasharray:5.0,5.0;" x1="56" x2="56" y1="81.4883" y2="527.4805"/><line style="stroke:#181818;stroke-width:0.5;stroke-dasharray:5.0,5.0;" x1="295.667" x2="295.667" y1="81.4883" y2="527.4805"/><text fill="#000000" font-family="sans-serif" font-size="14" lengthAdjust="spacing" textLength="67.0264" x="20" y="78.5352">CarOwner</text><ellipse cx="56.5132" cy="13.5" fill="#E2E2F0" rx="8" ry="8" style="stroke:#181818;stroke-width:0.5;"/><path d="M56.5132,21.5 L56.5132,48.5 M43.5132,29.5 L69.5132,29.5 M56.5132,48.5 L43.5132,63.5 M56.5132,48.5 L69.5132,63.5 " fill="none" style="stroke:#181818;stroke-width:0.5;"/><text fill="#000000" font-family="sans-serif" font-size="14" lengthAdjust="spacing" textLength="67.0264" x="20" y="540.0156">CarOwner</text><ellipse cx="56.5132" cy="551.4688" fill="#E2E2F0" rx="8" ry="8" style="stroke:#181818;stroke-width:0.5;"/><path d="M56.5132,559.4688 L56.5132,586.4688 M43.5132,567.4688 L69.5132,567.4688 M56.5132,586.4688 L43.5132,601.4688 M56.5132,586.4688 L69.5132,601.4688 " fill="none" style="stroke:#181818;stroke-width:0.5;"/><rect fill="#E2E2F0" height="30.4883" rx="2.5" ry="2.5" style="stroke:#181818;stroke-width:0.5;" width="41.2822" x="275.667" y="50"/><text fill="#000000" font-family="sans-serif" font-size="14" lengthAdjust="spacing" textLength="27.2822" x="282.667" y="70.5352">App</text><rect fill="#E2E2F0" height="30.4883" rx="2.5" ry="2.5" style="stroke:#181818;stroke-width:0.5;" width="41.2822" x="275.667" y="526.4805"/><text fill="#000000" font-family="sans-serif" font-size="14" lengthAdjust="spacing" textLength="27.2822" x="282.667" y="547.0156">App</text><polygon fill="#181818" points="284.3081,108.7988,294.3081,112.7988,284.3081,116.7988,288.3081,112.7988" style="stroke:#181818;stroke-width:1.0;"/><line style="stroke:#181818;stroke-width:1.0;" x1="56.5132" x2="290.3081" y1="112.7988" y2="112.7988"/><text fill="#000000" font-family="sans-serif" font-size="13" lengthAdjust="spacing" textLength="130.4824" x="63.5132" y="108.0566">Open "Find Ad" page</text><polygon fill="#181818" points="67.5132,138.1094,57.5132,142.1094,67.5132,146.1094,63.5132,142.1094" style="stroke:#181818;stroke-width:1.0;"/><line style="stroke:#181818;stroke-width:1.0;" x1="61.5132" x2="295.3081" y1="142.1094" y2="142.1094"/><text fill="#000000" font-family="sans-serif" font-size="13" lengthAdjust="spacing" textLength="215.7949" x="73.5132" y="137.3672">Show Ad preview (details + visual)</text><polygon fill="#181818" points="284.3081,167.4199,294.3081,171.4199,284.3081,175.4199,288.3081,171.4199" style="stroke:#181818;stroke-width:1.0;"/><line style="stroke:#181818;stroke-width:1.0;" x1="56.5132" x2="290.3081" y1="171.4199" y2="171.4199"/><text fill="#000000" font-family="sans-serif" font-size="13" lengthAdjust="spacing" textLength="64.4731" x="63.5132" y="166.6777">Review Ad</text><path d="M10,186.4199 L72.1387,186.4199 L72.1387,193.7305 L62.1387,203.7305 L10,203.7305 L10,186.4199 " fill="#EEEEEE" style="stroke:#000000;stroke-width:1.5;"/><rect fill="none" height="234.1289" style="stroke:#000000;stroke-width:1.5;" width="482.3315" x="10" y="186.4199"/><text fill="#000000" font-family="sans-serif" font-size="13" font-weight="bold" lengthAdjust="spacing" textLength="17.1387" x="25" y="199.9883">alt</text><text fill="#000000" font-family="sans-serif" font-size="11" font-weight="bold" lengthAdjust="spacing" textLength="144.3804" x="87.1387" y="199.0547">[Swipe Right (Interested)]</text><polygon fill="#181818" points="284.3081,221.041,294.3081,225.041,284.3081,229.041,288.3081,225.041" style="stroke:#181818;stroke-width:1.0;"/><line style="stroke:#181818;stroke-width:1.0;" x1="56.5132" x2="290.3081" y1="225.041" y2="225.041"/><text fill="#000000" font-family="sans-serif" font-size="13" lengthAdjust="spacing" textLength="73.3281" x="63.5132" y="220.2988">Swipe Right</text><line style="stroke:#181818;stroke-width:1.0;" x1="296.3081" x2="338.3081" y1="254.3516" y2="254.3516"/><line style="stroke:#181818;stroke-width:1.0;" x1="338.3081" x2="338.3081" y1="254.3516" y2="267.3516"/><line style="stroke:#181818;stroke-width:1.0;" x1="297.3081" x2="338.3081" y1="267.3516" y2="267.3516"/><polygon fill="#181818" points="307.3081,263.3516,297.3081,267.3516,307.3081,271.3516,303.3081,267.3516" style="stroke:#181818;stroke-width:1.0;"/><text fill="#000000" font-family="sans-serif" font-size="13" lengthAdjust="spacing" textLength="177.0234" x="303.3081" y="249.6094">Record interest in campaign</text><polygon fill="#181818" points="67.5132,292.6621,57.5132,296.6621,67.5132,300.6621,63.5132,296.6621" style="stroke:#181818;stroke-width:1.0;"/><line style="stroke:#181818;stroke-width:1.0;" x1="61.5132" x2="295.3081" y1="296.6621" y2="296.6621"/><text fill="#000000" font-family="sans-serif" font-size="13" lengthAdjust="spacing" textLength="143.8823" x="73.5132" y="291.9199">Show next available ad</text><line style="stroke:#000000;stroke-width:1.0;stroke-dasharray:2.0,2.0;" x1="10" x2="492.3315" y1="305.6621" y2="305.6621"/><text fill="#000000" font-family="sans-serif" font-size="11" font-weight="bold" lengthAdjust="spacing" textLength="159.6987" x="15" y="316.2969">[Swipe Left (Not Interested)]</text><polygon fill="#181818" points="284.3081,336.9277,294.3081,340.9277,284.3081,344.9277,288.3081,340.9277" style="stroke:#181818;stroke-width:1.0;"/><line style="stroke:#181818;stroke-width:1.0;" x1="56.5132" x2="290.3081" y1="340.9277" y2="340.9277"/><text fill="#000000" font-family="sans-serif" font-size="13" lengthAdjust="spacing" textLength="64.1304" x="63.5132" y="336.1855">Swipe Left</text><line style="stroke:#181818;stroke-width:1.0;" x1="296.3081" x2="338.3081" y1="370.2383" y2="370.2383"/><line style="stroke:#181818;stroke-width:1.0;" x1="338.3081" x2="338.3081" y1="370.2383" y2="383.2383"/><line style="stroke:#181818;stroke-width:1.0;" x1="297.3081" x2="338.3081" y1="383.2383" y2="383.2383"/><polygon fill="#181818" points="307.3081,379.2383,297.3081,383.2383,307.3081,387.2383,303.3081,383.2383" style="stroke:#181818;stroke-width:1.0;"/><text fill="#000000" font-family="sans-serif" font-size="13" lengthAdjust="spacing" textLength="46.0142" x="303.3081" y="365.4961">Skip ad</text><polygon fill="#181818" points="67.5132,408.5488,57.5132,412.5488,67.5132,416.5488,63.5132,412.5488" style="stroke:#181818;stroke-width:1.0;"/><line style="stroke:#181818;stroke-width:1.0;" x1="61.5132" x2="295.3081" y1="412.5488" y2="412.5488"/><text fill="#000000" font-family="sans-serif" font-size="13" lengthAdjust="spacing" textLength="143.8823" x="73.5132" y="407.8066">Show next available ad</text><path d="M10,434.5488 L72.1387,434.5488 L72.1387,441.8594 L62.1387,451.8594 L10,451.8594 L10,434.5488 " fill="#EEEEEE" style="stroke:#000000;stroke-width:1.5;"/><rect fill="none" height="75.9316" style="stroke:#000000;stroke-width:1.5;" width="316.9492" x="10" y="434.5488"/><text fill="#000000" font-family="sans-serif" font-size="13" font-weight="bold" lengthAdjust="spacing" textLength="17.1387" x="25" y="448.1172">alt</text><text fill="#000000" font-family="sans-serif" font-size="11" font-weight="bold" lengthAdjust="spacing" textLength="232.7241" x="87.1387" y="447.1836">[Taps Back Arrow(return to previous ad)]</text><polygon fill="#181818" points="284.3081,469.1699,294.3081,473.1699,284.3081,477.1699,288.3081,473.1699" style="stroke:#181818;stroke-width:1.0;"/><line style="stroke:#181818;stroke-width:1.0;" x1="56.5132" x2="290.3081" y1="473.1699" y2="473.1699"/><text fill="#000000" font-family="sans-serif" font-size="13" lengthAdjust="spacing" textLength="98.3315" x="63.5132" y="468.4277">Tap Back Arrow</text><polygon fill="#181818" points="67.5132,498.4805,57.5132,502.4805,67.5132,506.4805,63.5132,502.4805" style="stroke:#181818;stroke-width:1.0;"/><line style="stroke:#181818;stroke-width:1.0;" x1="61.5132" x2="295.3081" y1="502.4805" y2="502.4805"/><text fill="#000000" font-family="sans-serif" font-size="13" lengthAdjust="spacing" textLength="110.5698" x="73.5132" y="497.7383">Show previous ad</text><!--SRC=[bP3HIWCn44NVynMNFkqY_a0VX5KG1B7GzGV6pRWDZKb8PZVz_6RRhInMHVCqC6Vkd0nruYCUA6wouwZKfSBj7PeGiCOciCFgqJYDHgyGg6SrTGhm2Q_HxdmkVOJ8e-6CIhEGiGat64qQoDRVPM_FSAEL8YjeimcChUbtWkh92KTEmhfMAEzwUe6VYDdg4jtvg67cb5AWeuz0fdTB-EiN71y4D1PrUhCCqefjuddLCxyNiHSl-AlSD77jrkvDcAB_v-7cAxrIIBYdReycHf-ho3941_7du_iX5Rp63rvbUZ7ycy8YxRJy2000]--></g></svg>