<?plantuml 1.2026.2?><svg xmlns="http://www.w3.org/2000/svg" xmlns:xlink="http://www.w3.org/1999/xlink" contentStyleType="text/css" data-diagram-type="SEQUENCE" height="1027px" preserveAspectRatio="none" style="width:837px;height:1027px;background:#FFFFFF;" version="1.1" viewBox="0 0 837 1027" width="837px" zoomAndPan="magnify"><defs/><g><rect fill="none" height="592.4102" style="stroke:#000000;stroke-width:1.5;" width="821.9673" x="10" y="186.4199"/><rect fill="none" height="531.7891" style="stroke:#000000;stroke-width:1.5;" width="801.9673" x="20" y="240.041"/><rect fill="none" height="149.5078" style="stroke:#000000;stroke-width:1.5;" width="781.9673" x="30" y="615.3223"/><rect fill="none" height="46.6211" style="stroke:#000000;stroke-width:1.5;" width="504.7368" x="30" y="792.8301"/><rect fill="none" height="75.9316" style="stroke:#000000;stroke-width:1.5;" width="781.9673" x="30" y="853.4512"/><g class="participant-lifeline" data-entity-uid="part1" data-qualified-name="Driver" id="part1-lifeline"><g><title>Driver</title><rect fill="#000000" fill-opacity="0.00000" height="864.8945" width="8" x="59.5181" y="81.4883"/><line style="stroke:#181818;stroke-width:0.5;stroke-dasharray:5,5;" x1="63" x2="63" y1="81.4883" y2="946.3828"/></g></g><g class="participant-lifeline" data-entity-uid="part2" data-qualified-name="App" id="part2-lifeline"><g><title>App</title><rect fill="#000000" fill-opacity="0.00000" height="864.8945" width="8" x="500.0957" y="81.4883"/><line style="stroke:#181818;stroke-width:0.5;stroke-dasharray:5,5;" x1="503.4546" x2="503.4546" y1="81.4883" y2="946.3828"/></g></g><g class="participant-lifeline" data-entity-uid="part3" data-qualified-name="Backend" id="part3-lifeline"><g><title>Backend</title><rect fill="#000000" fill-opacity="0.00000" height="864.8945" width="8" x="762.7485" y="81.4883"/><line style="stroke:#181818;stroke-width:0.5;stroke-dasharray:5,5;" x1="766.5298" x2="766.5298" y1="81.4883" y2="946.3828"/></g></g><g class="participant participant-head" data-entity-uid="part1" data-qualified-name="Driver" id="part1-head"><text fill="#000000" font-family="sans-serif" font-size="14" lengthAdjust="spacing" textLength="41.0361" x="40" y="78.5352">Driver</text><ellipse cx="63.5181" cy="13.5" fill="#E2E2F0" rx="8" ry="8" style="stroke:#181818;stroke-width:0.5;"/><path d="M63.5181,21.5 L63.5181,48.5 M50.5181,29.5 L76.5181,29.5 M63.5181,48.5 L50.5181,63.5 M63.5181,48.5 L76.5181,63.5" fill="none" style="stroke:#181818;stroke-width:0.5;"/></g><g class="participant participant-tail" data-entity-uid="part1" data-qualified-name="Driver" id="part1-tail"><text fill="#000000" font-family="sans-serif" font-size="14" lengthAdjust="spacing" textLength="41.0361" x="40" y="958.918">Driver</text><ellipse cx="63.5181" cy="970.3711" fill="#E2E2F0" rx="8" ry="8" style="stroke:#181818;stroke-width:0.5;"/><path d="M63.5181,978.3711 L63.5181,1005.3711 M50.5181,986.3711 L76.5181,986.3711 M63.5181,1005.3711 L50.5181,1020.3711 M63.5181,1005.3711 L76.5181,1020.3711" fill="none" style="stroke:#181818;stroke-width:0.5;"/></g><g class="participant participant-head" data-entity-uid="part2" data-qualified-name="App" id="part2-head"><rect fill="#E2E2F0" height="30.4883" rx="2.5" ry="2.5" style="stroke:#181818;stroke-width:0.5;" width="41.2822" x="483.4546" y="50"/><text fill="#000000" font-family="sans-serif" font-size="14" lengthAdjust="spacing" textLength="27.2822" x="490.4546" y="70.5352">App</text></g><g class="participant participant-tail" data-entity-uid="part2" data-qualified-name="App" id="part2-tail"><rect fill="#E2E2F0" height="30.4883" rx="2.5" ry="2.5" style="stroke:#181818;stroke-width:0.5;" width="41.2822" x="483.4546" y="945.3828"/><text fill="#000000" font-family="sans-serif" font-size="14" lengthAdjust="spacing" textLength="27.2822" x="490.4546" y="965.918">App</text></g><g class="participant participant-head" data-entity-uid="part3" data-qualified-name="Backend" id="part3-head"><rect fill="#E2E2F0" height="30.4883" rx="2.5" ry="2.5" style="stroke:#181818;stroke-width:0.5;" width="70.4375" x="731.5298" y="50"/><text fill="#000000" font-family="sans-serif" font-size="14" lengthAdjust="spacing" textLength="56.4375" x="738.5298" y="70.5352">Backend</text></g><g class="participant participant-tail" data-entity-uid="part3" data-qualified-name="Backend" id="part3-tail"><rect fill="#E2E2F0" height="30.4883" rx="2.5" ry="2.5" style="stroke:#181818;stroke-width:0.5;" width="70.4375" x="731.5298" y="945.3828"/><text fill="#000000" font-family="sans-serif" font-size="14" lengthAdjust="spacing" textLength="56.4375" x="738.5298" y="965.918">Backend</text></g><g class="message" data-entity-1="part1" data-entity-2="part2" id="msg1"><polygon fill="#181818" points="492.0957,108.7988,502.0957,112.7988,492.0957,116.7988,496.0957,112.7988" style="stroke:#181818;stroke-width:1;"/><line style="stroke:#181818;stroke-width:1;" x1="63.5181" x2="498.0957" y1="112.7988" y2="112.7988"/><text fill="#000000" font-family="sans-serif" font-size="13" lengthAdjust="spacing" textLength="178.9595" x="70.5181" y="108.0566">Navigate to "Find Ad" screen</text></g><g class="message" data-entity-1="part2" data-entity-2="part3" id="msg2"><polygon fill="#181818" points="754.7485,138.1094,764.7485,142.1094,754.7485,146.1094,758.7485,142.1094" style="stroke:#181818;stroke-width:1;"/><line style="stroke:#181818;stroke-width:1;" x1="504.0957" x2="760.7485" y1="142.1094" y2="142.1094"/><text fill="#000000" font-family="sans-serif" font-size="13" lengthAdjust="spacing" textLength="171.082" x="511.0957" y="137.3672">Fetch recruiting campaigns</text></g><g class="message" data-entity-1="part3" data-entity-2="part2" id="msg3"><polygon fill="#181818" points="515.0957,167.4199,505.0957,171.4199,515.0957,175.4199,511.0957,171.4199" style="stroke:#181818;stroke-width:1;"/><line style="stroke:#181818;stroke-width:1;" x1="509.0957" x2="765.7485" y1="171.4199" y2="171.4199"/><text fill="#000000" font-family="sans-serif" font-size="13" lengthAdjust="spacing" textLength="86.7217" x="521.0957" y="166.6777">Campaign list</text></g><path d="M10,186.4199 L84.4468,186.4199 L84.4468,193.7305 L74.4468,203.7305 L10,203.7305 L10,186.4199" fill="#EEEEEE" style="stroke:#000000;stroke-width:1.5;"/><rect fill="none" height="592.4102" style="stroke:#000000;stroke-width:1.5;" width="821.9673" x="10" y="186.4199"/><text fill="#000000" font-family="sans-serif" font-size="13" font-weight="bold" lengthAdjust="spacing" textLength="29.4468" x="25" y="199.9883">loop</text><text fill="#000000" font-family="sans-serif" font-size="11" font-weight="bold" lengthAdjust="spacing" textLength="117.5679" x="99.4468" y="199.0547">[until list exhausted]</text><g class="message" data-entity-1="part2" data-entity-2="part1" id="msg4"><polygon fill="#181818" points="74.5181,221.041,64.5181,225.041,74.5181,229.041,70.5181,225.041" style="stroke:#181818;stroke-width:1;"/><line style="stroke:#181818;stroke-width:1;" x1="68.5181" x2="503.0957" y1="225.041" y2="225.041"/><text fill="#000000" font-family="sans-serif" font-size="13" lengthAdjust="spacing" textLength="416.5776" x="80.5181" y="220.2988">Present one campaign (name, company, reward, duration, vehicle)</text></g><path d="M20,240.041 L82.1387,240.041 L82.1387,247.3516 L72.1387,257.3516 L20,257.3516 L20,240.041" fill="#EEEEEE" style="stroke:#000000;stroke-width:1.5;"/><rect fill="none" height="531.7891" style="stroke:#000000;stroke-width:1.5;" width="801.9673" x="20" y="240.041"/><text fill="#000000" font-family="sans-serif" font-size="13" font-weight="bold" lengthAdjust="spacing" textLength="17.1387" x="35" y="253.6094">alt</text><text fill="#000000" font-family="sans-serif" font-size="11" font-weight="bold" lengthAdjust="spacing" textLength="161.5786" x="97.1387" y="252.6758">[Affirmative gesture (apply)]</text><g class="message" data-entity-1="part1" data-entity-2="part2" id="msg5"><polygon fill="#181818" points="492.0957,274.6621,502.0957,278.6621,492.0957,282.6621,496.0957,278.6621" style="stroke:#181818;stroke-width:1;"/><line style="stroke:#181818;stroke-width:1;" x1="63.5181" x2="498.0957" y1="278.6621" y2="278.6621"/><text fill="#000000" font-family="sans-serif" font-size="13" lengthAdjust="spacing" textLength="161.3511" x="70.5181" y="273.9199">Single affirmative gesture</text></g><g class="message" data-entity-1="part2" data-entity-2="part3" id="msg6"><polygon fill="#181818" points="754.7485,303.9727,764.7485,307.9727,754.7485,311.9727,758.7485,307.9727" style="stroke:#181818;stroke-width:1;"/><line style="stroke:#181818;stroke-width:1;" x1="504.0957" x2="760.7485" y1="307.9727" y2="307.9727"/><text fill="#000000" font-family="sans-serif" font-size="13" lengthAdjust="spacing" textLength="238.6528" x="511.0957" y="303.2305">Submit application (status = pending)</text></g><g class="message" data-entity-1="part3" data-entity-2="part2" id="msg7"><polygon fill="#181818" points="515.0957,333.2832,505.0957,337.2832,515.0957,341.2832,511.0957,337.2832" style="stroke:#181818;stroke-width:1;"/><line style="stroke:#181818;stroke-width:1;" x1="509.0957" x2="765.7485" y1="337.2832" y2="337.2832"/><text fill="#000000" font-family="sans-serif" font-size="13" lengthAdjust="spacing" textLength="18.5859" x="521.0957" y="332.541">OK</text></g><g class="message" data-entity-1="part2" data-entity-2="part1" id="msg8"><polygon fill="#181818" points="74.5181,362.5938,64.5181,366.5938,74.5181,370.5938,70.5181,366.5938" style="stroke:#181818;stroke-width:1;"/><line style="stroke:#181818;stroke-width:1;" x1="68.5181" x2="503.0957" y1="366.5938" y2="366.5938"/><text fill="#000000" font-family="sans-serif" font-size="13" lengthAdjust="spacing" textLength="130.7109" x="80.5181" y="361.8516">Show next campaign</text></g><line style="stroke:#000000;stroke-width:1;stroke-dasharray:2,2;" x1="20" x2="821.9673" y1="375.5938" y2="375.5938"/><text fill="#000000" font-family="sans-serif" font-size="11" font-weight="bold" lengthAdjust="spacing" textLength="152.4048" x="25" y="386.2285">[Dismissive gesture (skip)]</text><g class="message" data-entity-1="part1" data-entity-2="part2" id="msg9"><polygon fill="#181818" points="492.0957,406.8594,502.0957,410.8594,492.0957,414.8594,496.0957,410.8594" style="stroke:#181818;stroke-width:1;"/><line style="stroke:#181818;stroke-width:1;" x1="63.5181" x2="498.0957" y1="410.8594" y2="410.8594"/><text fill="#000000" font-family="sans-serif" font-size="13" lengthAdjust="spacing" textLength="159.0723" x="70.5181" y="406.1172">Single dismissive gesture</text></g><g class="message" data-entity-1="part2" data-entity-2="part2" id="msg10"><line style="stroke:#181818;stroke-width:1;" x1="504.0957" x2="546.0957" y1="440.1699" y2="440.1699"/><line style="stroke:#181818;stroke-width:1;" x1="546.0957" x2="546.0957" y1="440.1699" y2="453.1699"/><line style="stroke:#181818;stroke-width:1;" x1="505.0957" x2="546.0957" y1="453.1699" y2="453.1699"/><polygon fill="#181818" points="515.0957,449.1699,505.0957,453.1699,515.0957,457.1699,511.0957,453.1699" style="stroke:#181818;stroke-width:1;"/><text fill="#000000" font-family="sans-serif" font-size="13" lengthAdjust="spacing" textLength="246.9238" x="511.0957" y="435.4277">Mark campaign skipped (session-local)</text></g><g class="message" data-entity-1="part2" data-entity-2="part1" id="msg11"><polygon fill="#181818" points="74.5181,478.4805,64.5181,482.4805,74.5181,486.4805,70.5181,482.4805" style="stroke:#181818;stroke-width:1;"/><line style="stroke:#181818;stroke-width:1;" x1="68.5181" x2="503.0957" y1="482.4805" y2="482.4805"/><text fill="#000000" font-family="sans-serif" font-size="13" lengthAdjust="spacing" textLength="130.7109" x="80.5181" y="477.7383">Show next campaign</text></g><line style="stroke:#000000;stroke-width:1;stroke-dasharray:2,2;" x1="20" x2="821.9673" y1="491.4805" y2="491.4805"/><text fill="#000000" font-family="sans-serif" font-size="11" font-weight="bold" lengthAdjust="spacing" textLength="142.2642" x="25" y="502.1152">[Open for details (UC03)]</text><g class="message" data-entity-1="part1" data-entity-2="part2" id="msg12"><polygon fill="#181818" points="492.0957,522.7461,502.0957,526.7461,492.0957,530.7461,496.0957,526.7461" style="stroke:#181818;stroke-width:1;"/><line style="stroke:#181818;stroke-width:1;" x1="63.5181" x2="498.0957" y1="526.7461" y2="526.7461"/><text fill="#000000" font-family="sans-serif" font-size="13" lengthAdjust="spacing" textLength="80.5708" x="70.5181" y="522.0039">Tap "Details"</text></g><g class="message" data-entity-1="part2" data-entity-2="part1" id="msg13"><polygon fill="#181818" points="74.5181,552.0566,64.5181,556.0566,74.5181,560.0566,70.5181,556.0566" style="stroke:#181818;stroke-width:1;"/><line style="stroke:#181818;stroke-width:1;" x1="68.5181" x2="503.0957" y1="556.0566" y2="556.0566"/><text fill="#000000" font-family="sans-serif" font-size="13" lengthAdjust="spacing" textLength="169.9268" x="80.5181" y="551.3145">Open campaign detail view</text></g><line style="stroke:#000000;stroke-width:1;stroke-dasharray:2,2;" x1="20" x2="821.9673" y1="565.0566" y2="565.0566"/><text fill="#000000" font-family="sans-serif" font-size="11" font-weight="bold" lengthAdjust="spacing" textLength="115.4033" x="25" y="575.6914">[Reverse last action]</text><g class="message" data-entity-1="part1" data-entity-2="part2" id="msg14"><polygon fill="#181818" points="492.0957,596.3223,502.0957,600.3223,492.0957,604.3223,496.0957,600.3223" style="stroke:#181818;stroke-width:1;"/><line style="stroke:#181818;stroke-width:1;" x1="63.5181" x2="498.0957" y1="600.3223" y2="600.3223"/><text fill="#000000" font-family="sans-serif" font-size="13" lengthAdjust="spacing" textLength="70.6494" x="70.5181" y="595.5801">Tap "Undo"</text></g><path d="M30,615.3223 L92.1387,615.3223 L92.1387,622.6328 L82.1387,632.6328 L30,632.6328 L30,615.3223" fill="#EEEEEE" style="stroke:#000000;stroke-width:1.5;"/><rect fill="none" height="149.5078" style="stroke:#000000;stroke-width:1.5;" width="781.9673" x="30" y="615.3223"/><text fill="#000000" font-family="sans-serif" font-size="13" font-weight="bold" lengthAdjust="spacing" textLength="17.1387" x="45" y="628.8906">alt</text><text fill="#000000" font-family="sans-serif" font-size="11" font-weight="bold" lengthAdjust="spacing" textLength="123.4009" x="107.1387" y="627.957">[Last action was skip]</text><g class="message" data-entity-1="part2" data-entity-2="part1" id="msg15"><polygon fill="#181818" points="74.5181,649.9434,64.5181,653.9434,74.5181,657.9434,70.5181,653.9434" style="stroke:#181818;stroke-width:1;"/><line style="stroke:#181818;stroke-width:1;" x1="68.5181" x2="503.0957" y1="653.9434" y2="653.9434"/><text fill="#000000" font-family="sans-serif" font-size="13" lengthAdjust="spacing" textLength="166.7656" x="80.5181" y="649.2012">Restore skipped campaign</text></g><line style="stroke:#000000;stroke-width:1;stroke-dasharray:2,2;" x1="30" x2="811.9673" y1="662.9434" y2="662.9434"/><text fill="#000000" font-family="sans-serif" font-size="11" font-weight="bold" lengthAdjust="spacing" textLength="130.3887" x="35" y="673.5781">[Last action was apply]</text><g class="message" data-entity-1="part2" data-entity-2="part3" id="msg16"><polygon fill="#181818" points="754.7485,694.209,764.7485,698.209,754.7485,702.209,758.7485,698.209" style="stroke:#181818;stroke-width:1;"/><line style="stroke:#181818;stroke-width:1;" x1="504.0957" x2="760.7485" y1="698.209" y2="698.209"/><text fill="#000000" font-family="sans-serif" font-size="13" lengthAdjust="spacing" textLength="132.1899" x="511.0957" y="693.4668">Withdraw application</text></g><g class="message" data-entity-1="part3" data-entity-2="part2" id="msg17"><polygon fill="#181818" points="515.0957,723.5195,505.0957,727.5195,515.0957,731.5195,511.0957,727.5195" style="stroke:#181818;stroke-width:1;"/><line style="stroke:#181818;stroke-width:1;" x1="509.0957" x2="765.7485" y1="727.5195" y2="727.5195"/><text fill="#000000" font-family="sans-serif" font-size="13" lengthAdjust="spacing" textLength="18.5859" x="521.0957" y="722.7773">OK</text></g><g class="message" data-entity-1="part2" data-entity-2="part1" id="msg18"><polygon fill="#181818" points="74.5181,752.8301,64.5181,756.8301,74.5181,760.8301,70.5181,756.8301" style="stroke:#181818;stroke-width:1;"/><line style="stroke:#181818;stroke-width:1;" x1="68.5181" x2="503.0957" y1="756.8301" y2="756.8301"/><text fill="#000000" font-family="sans-serif" font-size="13" lengthAdjust="spacing" textLength="185.3198" x="80.5181" y="752.0879">Campaign restored for action</text></g><path d="M30,792.8301 L92.1387,792.8301 L92.1387,800.1406 L82.1387,810.1406 L30,810.1406 L30,792.8301" fill="#EEEEEE" style="stroke:#000000;stroke-width:1.5;"/><rect fill="none" height="46.6211" style="stroke:#000000;stroke-width:1.5;" width="504.7368" x="30" y="792.8301"/><text fill="#000000" font-family="sans-serif" font-size="13" font-weight="bold" lengthAdjust="spacing" textLength="17.1387" x="45" y="806.3984">alt</text><text fill="#000000" font-family="sans-serif" font-size="11" font-weight="bold" lengthAdjust="spacing" textLength="240.7217" x="107.1387" y="805.4648">[No recruiting campaigns / list exhausted]</text><g class="message" data-entity-1="part2" data-entity-2="part1" id="msg19"><polygon fill="#181818" points="74.5181,827.4512,64.5181,831.4512,74.5181,835.4512,70.5181,831.4512" style="stroke:#181818;stroke-width:1;"/><line style="stroke:#181818;stroke-width:1;" x1="68.5181" x2="503.0957" y1="831.4512" y2="831.4512"/><text fill="#000000" font-family="sans-serif" font-size="13" lengthAdjust="spacing" textLength="187.0591" x="80.5181" y="826.709">Show empty state + "Refresh"</text></g><path d="M30,853.4512 L92.1387,853.4512 L92.1387,860.7617 L82.1387,870.7617 L30,870.7617 L30,853.4512" fill="#EEEEEE" style="stroke:#000000;stroke-width:1.5;"/><rect fill="none" height="75.9316" style="stroke:#000000;stroke-width:1.5;" width="781.9673" x="30" y="853.4512"/><text fill="#000000" font-family="sans-serif" font-size="13" font-weight="bold" lengthAdjust="spacing" textLength="17.1387" x="45" y="867.0195">alt</text><text fill="#000000" font-family="sans-serif" font-size="11" font-weight="bold" lengthAdjust="spacing" textLength="169.4849" x="107.1387" y="866.0859">[Application submission fails]</text><g class="message" data-entity-1="part3" data-entity-2="part2" id="msg20"><polygon fill="#181818" points="515.0957,888.0723,505.0957,892.0723,515.0957,896.0723,511.0957,892.0723" style="stroke:#181818;stroke-width:1;"/><line style="stroke:#181818;stroke-width:1;" x1="509.0957" x2="765.7485" y1="892.0723" y2="892.0723"/><text fill="#000000" font-family="sans-serif" font-size="13" lengthAdjust="spacing" textLength="30.9893" x="521.0957" y="887.3301">Error</text></g><g class="message" data-entity-1="part2" data-entity-2="part1" id="msg21"><polygon fill="#181818" points="74.5181,917.3828,64.5181,921.3828,74.5181,925.3828,70.5181,921.3828" style="stroke:#181818;stroke-width:1;"/><line style="stroke:#181818;stroke-width:1;" x1="68.5181" x2="503.0957" y1="921.3828" y2="921.3828"/><text fill="#000000" font-family="sans-serif" font-size="13" lengthAdjust="spacing" textLength="307.2329" x="80.5181" y="916.6406">Show error, campaign remains available for retry</text></g><?plantuml-src dLHTRnen47pthrZT4wX4hTGtf5QYeNbfcrJGgCyRU-4iVBPb-uxmxxisv2vyX5OzwMHntfqPZsT1cLo0UT0T1I7sAznyXfdtC8LxxFGQ4q5oKDrfgs2cAeWo45cHIxZo2yeDySuKxYZ96WB9qEgaxHeaDXxrsaRnKjGZtnwsmEYOX33EUMXjqgPy07gkiOs9b01-3am7TLFu6IYIJU0izHmmijZG1AJZttOtOHrR36e2gWsOjBCJwAZMqj1O550q2MQhbGuDRtS4Qugf3GGZzDxingKcFwUUBFbaXW3FM_kMCsUMxLEZ4sHaBOiQ6CM4gOtm2JpNCER0U6RMmxTJwDwAPUssOEavzKQKKZAHOAvZesCyEbpSQF_NiwcpnbF-VVaF39lX0ZAq9yKSnBtEtXWdqOp_I_e3cm8hJgQYXDf463tUVlZujl1VwA6QxskhDnaBQgzt3msTfkr0l20kvTKWfn1blghhf8zMkO4nX-hxq0fRZCMNlk2Ih0LxxFXoNWmyigDNTWfROde9TuZTRvrg5N3xEdX77TUITabfFxLXBrcLEpgnYG75ovfVaKsvTnV_6E3zlynxIGerFkqWJmt1EwWMj68HTJLGp5vDLym3Lr88gvm9SV6qNqDmuGfZtfuCWGdKe6RDs34aFl6WvDC7Ic5NLFm1?></g></svg>