<svg xmlns="http://www.w3.org/2000/svg" xmlns:xlink="http://www.w3.org/1999/xlink" contentStyleType="text/css" height="665px" preserveAspectRatio="none" style="width:621px;height:665px;background:#FFFFFF;" version="1.1" viewBox="0 0 621 665" width="621px" zoomAndPan="magnify"><defs/><g><rect fill="none" height="397.6367" style="stroke:#000000;stroke-width:1.5;" width="597.9258" x="10" y="170.1094"/><rect fill="none" height="250.4395" style="stroke:#000000;stroke-width:1.5;" width="577.9258" x="20" y="266.041"/><line style="stroke:#181818;stroke-width:0.5;stroke-dasharray:5.0,5.0;" x1="80" x2="80" y1="81.4883" y2="584.7461"/><line style="stroke:#181818;stroke-width:0.5;stroke-dasharray:5.0,5.0;" x1="364.959" x2="364.959" y1="81.4883" y2="584.7461"/><text fill="#000000" font-family="sans-serif" font-size="14" lengthAdjust="spacing" textLength="94.2676" x="30" y="78.5352">CompanyUser</text><ellipse cx="80.1338" cy="13.5" fill="#E2E2F0" rx="8" ry="8" style="stroke:#181818;stroke-width:0.5;"/><path d="M80.1338,21.5 L80.1338,48.5 M67.1338,29.5 L93.1338,29.5 M80.1338,48.5 L67.1338,63.5 M80.1338,48.5 L93.1338,63.5 " fill="none" style="stroke:#181818;stroke-width:0.5;"/><text fill="#000000" font-family="sans-serif" font-size="14" lengthAdjust="spacing" textLength="94.2676" x="30" y="597.2813">CompanyUser</text><ellipse cx="80.1338" cy="608.7344" fill="#E2E2F0" rx="8" ry="8" style="stroke:#181818;stroke-width:0.5;"/><path d="M80.1338,616.7344 L80.1338,643.7344 M67.1338,624.7344 L93.1338,624.7344 M80.1338,643.7344 L67.1338,658.7344 M80.1338,643.7344 L93.1338,658.7344 " fill="none" style="stroke:#181818;stroke-width:0.5;"/><rect fill="#E2E2F0" height="30.4883" rx="2.5" ry="2.5" style="stroke:#181818;stroke-width:0.5;" width="41.2822" x="344.959" y="50"/><text fill="#000000" font-family="sans-serif" font-size="14" lengthAdjust="spacing" textLength="27.2822" x="351.959" y="70.5352">App</text><rect fill="#E2E2F0" height="30.4883" rx="2.5" ry="2.5" style="stroke:#181818;stroke-width:0.5;" width="41.2822" x="344.959" y="583.7461"/><text fill="#000000" font-family="sans-serif" font-size="14" lengthAdjust="spacing" textLength="27.2822" x="351.959" y="604.2813">App</text><polygon fill="#181818" points="353.6001,108.7988,363.6001,112.7988,353.6001,116.7988,357.6001,112.7988" style="stroke:#181818;stroke-width:1.0;"/><line style="stroke:#181818;stroke-width:1.0;" x1="80.1338" x2="359.6001" y1="112.7988" y2="112.7988"/><text fill="#000000" font-family="sans-serif" font-size="13" lengthAdjust="spacing" textLength="196.0918" x="87.1338" y="108.0566">Navigate to "Find Drivers" page</text><line style="stroke:#181818;stroke-width:1.0;" x1="365.6001" x2="407.6001" y1="142.1094" y2="142.1094"/><line style="stroke:#181818;stroke-width:1.0;" x1="407.6001" x2="407.6001" y1="142.1094" y2="155.1094"/><line style="stroke:#181818;stroke-width:1.0;" x1="366.6001" x2="407.6001" y1="155.1094" y2="155.1094"/><polygon fill="#181818" points="376.6001,151.1094,366.6001,155.1094,376.6001,159.1094,372.6001,155.1094" style="stroke:#181818;stroke-width:1.0;"/><text fill="#000000" font-family="sans-serif" font-size="13" lengthAdjust="spacing" textLength="241.6235" x="372.6001" y="137.3672">Retrieve campaigns in Recruiting state</text><path d="M10,170.1094 L72.1387,170.1094 L72.1387,177.4199 L62.1387,187.4199 L10,187.4199 L10,170.1094 " fill="#EEEEEE" style="stroke:#000000;stroke-width:1.5;"/><rect fill="none" height="397.6367" style="stroke:#000000;stroke-width:1.5;" width="597.9258" x="10" y="170.1094"/><text fill="#000000" font-family="sans-serif" font-size="13" font-weight="bold" lengthAdjust="spacing" textLength="17.1387" x="25" y="183.6777">alt</text><text fill="#000000" font-family="sans-serif" font-size="11" font-weight="bold" lengthAdjust="spacing" textLength="125.1733" x="87.1387" y="182.7441">[Campaigns available]</text><polygon fill="#181818" points="353.6001,204.7305,363.6001,208.7305,353.6001,212.7305,357.6001,208.7305" style="stroke:#181818;stroke-width:1.0;"/><line style="stroke:#181818;stroke-width:1.0;" x1="80.1338" x2="359.6001" y1="208.7305" y2="208.7305"/><text fill="#000000" font-family="sans-serif" font-size="13" lengthAdjust="spacing" textLength="102.1465" x="87.1338" y="203.9883">Select campaign</text><line style="stroke:#181818;stroke-width:1.0;" x1="365.6001" x2="407.6001" y1="238.041" y2="238.041"/><line style="stroke:#181818;stroke-width:1.0;" x1="407.6001" x2="407.6001" y1="238.041" y2="251.041"/><line style="stroke:#181818;stroke-width:1.0;" x1="366.6001" x2="407.6001" y1="251.041" y2="251.041"/><polygon fill="#181818" points="376.6001,247.041,366.6001,251.041,376.6001,255.041,372.6001,251.041" style="stroke:#181818;stroke-width:1.0;"/><text fill="#000000" font-family="sans-serif" font-size="13" lengthAdjust="spacing" textLength="154.7749" x="372.6001" y="233.2988">Fetch driver applications</text><path d="M20,266.041 L82.1387,266.041 L82.1387,273.3516 L72.1387,283.3516 L20,283.3516 L20,266.041 " fill="#EEEEEE" style="stroke:#000000;stroke-width:1.5;"/><rect fill="none" height="250.4395" style="stroke:#000000;stroke-width:1.5;" width="577.9258" x="20" y="266.041"/><text fill="#000000" font-family="sans-serif" font-size="13" font-weight="bold" lengthAdjust="spacing" textLength="17.1387" x="35" y="279.6094">alt</text><text fill="#000000" font-family="sans-serif" font-size="11" font-weight="bold" lengthAdjust="spacing" textLength="109.6348" x="97.1387" y="278.6758">[Applications exist]</text><polygon fill="#181818" points="91.1338,300.6621,81.1338,304.6621,91.1338,308.6621,87.1338,304.6621" style="stroke:#181818;stroke-width:1.0;"/><line style="stroke:#181818;stroke-width:1.0;" x1="85.1338" x2="364.6001" y1="304.6621" y2="304.6621"/><text fill="#000000" font-family="sans-serif" font-size="13" lengthAdjust="spacing" textLength="182.5142" x="97.1338" y="299.9199">Display list with filters &amp; sort</text><polygon fill="#181818" points="353.6001,329.9727,363.6001,333.9727,353.6001,337.9727,357.6001,333.9727" style="stroke:#181818;stroke-width:1.0;"/><line style="stroke:#181818;stroke-width:1.0;" x1="80.1338" x2="359.6001" y1="333.9727" y2="333.9727"/><text fill="#000000" font-family="sans-serif" font-size="13" lengthAdjust="spacing" textLength="132.4819" x="87.1338" y="329.2305">Apply filters / search</text><polygon fill="#181818" points="353.6001,359.2832,363.6001,363.2832,353.6001,367.2832,357.6001,363.2832" style="stroke:#181818;stroke-width:1.0;"/><line style="stroke:#181818;stroke-width:1.0;" x1="80.1338" x2="359.6001" y1="363.2832" y2="363.2832"/><text fill="#000000" font-family="sans-serif" font-size="13" lengthAdjust="spacing" textLength="122.5669" x="87.1338" y="358.541">Select driver profile</text><polygon fill="#181818" points="91.1338,388.5938,81.1338,392.5938,91.1338,396.5938,87.1338,392.5938" style="stroke:#181818;stroke-width:1.0;"/><line style="stroke:#181818;stroke-width:1.0;" x1="85.1338" x2="364.6001" y1="392.5938" y2="392.5938"/><text fill="#000000" font-family="sans-serif" font-size="13" lengthAdjust="spacing" textLength="132.4185" x="97.1338" y="387.8516">Display driver details</text><polygon fill="#181818" points="353.6001,417.9043,363.6001,421.9043,353.6001,425.9043,357.6001,421.9043" style="stroke:#181818;stroke-width:1.0;"/><line style="stroke:#181818;stroke-width:1.0;" x1="80.1338" x2="359.6001" y1="421.9043" y2="421.9043"/><text fill="#000000" font-family="sans-serif" font-size="13" lengthAdjust="spacing" textLength="137.1665" x="87.1338" y="417.1621">Click Accept or Reject</text><line style="stroke:#181818;stroke-width:1.0;" x1="365.6001" x2="407.6001" y1="451.2148" y2="451.2148"/><line style="stroke:#181818;stroke-width:1.0;" x1="407.6001" x2="407.6001" y1="451.2148" y2="464.2148"/><line style="stroke:#181818;stroke-width:1.0;" x1="366.6001" x2="407.6001" y1="464.2148" y2="464.2148"/><polygon fill="#181818" points="376.6001,460.2148,366.6001,464.2148,376.6001,468.2148,372.6001,464.2148" style="stroke:#181818;stroke-width:1.0;"/><text fill="#000000" font-family="sans-serif" font-size="13" lengthAdjust="spacing" textLength="213.3257" x="372.6001" y="446.4727">Record decision &amp; update counter</text><line style="stroke:#000000;stroke-width:1.0;stroke-dasharray:2.0,2.0;" x1="20" x2="597.9258" y1="473.2148" y2="473.2148"/><text fill="#000000" font-family="sans-serif" font-size="11" font-weight="bold" lengthAdjust="spacing" textLength="96.2822" x="25" y="483.8496">[No applications]</text><polygon fill="#181818" points="91.1338,504.4805,81.1338,508.4805,91.1338,512.4805,87.1338,508.4805" style="stroke:#181818;stroke-width:1.0;"/><line style="stroke:#181818;stroke-width:1.0;" x1="85.1338" x2="364.6001" y1="508.4805" y2="508.4805"/><text fill="#000000" font-family="sans-serif" font-size="13" lengthAdjust="spacing" textLength="219.3369" x="97.1338" y="503.7383">Show &#8220;No drivers have applied yet&#8221;</text><line style="stroke:#000000;stroke-width:1.0;stroke-dasharray:2.0,2.0;" x1="10" x2="607.9258" y1="524.4805" y2="524.4805"/><text fill="#000000" font-family="sans-serif" font-size="11" font-weight="bold" lengthAdjust="spacing" textLength="88.2793" x="15" y="535.1152">[No campaigns]</text><polygon fill="#181818" points="91.1338,555.7461,81.1338,559.7461,91.1338,563.7461,87.1338,559.7461" style="stroke:#181818;stroke-width:1.0;"/><line style="stroke:#181818;stroke-width:1.0;" x1="85.1338" x2="364.6001" y1="559.7461" y2="559.7461"/><text fill="#000000" font-family="sans-serif" font-size="13" lengthAdjust="spacing" textLength="261.4663" x="97.1338" y="555.0039">Show &#8220;No recruiting campaigns available&#8221;</text><!--SRC=[ZLAzRi8m4Dxz52U6RbLtXae8nCW0wWDSdMjohMjRzYKq6m_IlXnFqak045g4y1Rd-xlpXrP2WdduZEZRbqp9cD47F3x3B4QOmWeRBb489C1aoRw0HUA6Kfv0n99CXnh0QvB4r11OL2akVGRsUcjJpSA-X2mgPGmwWVa0mGRPuQiZ0tgkfjYG8ok3R0-yS5wIs0gAFXfWZ8uj2WUVJO_j36UZMw0lpjB_6acDhQUmu1mTjk0K2LkM2jxOYKuE3v13EhEl9kxSse7n19amsUesvpZbSOgOWjBflf17Ja6YkyotRUQwXW-OMKjHG4kmfdUr_UjpUb4RKg6wbhCkJaUlOz7LmORQwsWzYrmcM8NBlT-ClQd25lQxRoKTacUeK7lJAr01BSb-ztCGzuKn9uUXL-OUwNGkdltVjiwW4_y5]--></g></svg>