<?plantuml 1.2026.2?><svg xmlns="http://www.w3.org/2000/svg" xmlns:xlink="http://www.w3.org/1999/xlink" contentStyleType="text/css" data-diagram-type="SEQUENCE" height="900px" preserveAspectRatio="none" style="width:1100px;height:900px;background:#FFFFFF;" version="1.1" viewBox="0 0 1100 900" width="1100px" zoomAndPan="magnify"><defs/><g><rect fill="none" height="616.3867" style="stroke:#000000;stroke-width:1.5;" width="1083.8433" x="10" y="186.4199"/><rect fill="none" height="452.8789" style="stroke:#000000;stroke-width:1.5;" width="1063.8433" x="20" y="298.6621"/><rect fill="none" height="201.4395" style="stroke:#000000;stroke-width:1.5;" width="1043.8433" x="30" y="498.8359"/><g class="participant-lifeline" data-entity-uid="part1" data-qualified-name="Company" id="part1-lifeline"><g><title>Company</title><rect fill="#000000" fill-opacity="0.00000" height="738.3184" width="8" x="70.9512" y="81.4883"/><line style="stroke:#181818;stroke-width:0.5;stroke-dasharray:5,5;" x1="74" x2="74" y1="81.4883" y2="819.8066"/></g></g><g class="participant-lifeline" data-entity-uid="part2" data-qualified-name="App" id="part2-lifeline"><g><title>App</title><rect fill="#000000" fill-opacity="0.00000" height="738.3184" width="8" x="450.5215" y="81.4883"/><line style="stroke:#181818;stroke-width:0.5;stroke-dasharray:5,5;" x1="453.8804" x2="453.8804" y1="81.4883" y2="819.8066"/></g></g><g class="participant-lifeline" data-entity-uid="part3" data-qualified-name="Backend" id="part3-lifeline"><g><title>Backend</title><rect fill="#000000" fill-opacity="0.00000" height="738.3184" width="8" x="747.1787" y="81.4883"/><line style="stroke:#181818;stroke-width:0.5;stroke-dasharray:5,5;" x1="750.96" x2="750.96" y1="81.4883" y2="819.8066"/></g></g><g class="participant participant-head" data-entity-uid="part1" data-qualified-name="Company" id="part1-head"><text fill="#000000" font-family="sans-serif" font-size="14" lengthAdjust="spacing" textLength="63.9023" x="40" y="78.5352">Company</text><ellipse cx="74.9512" cy="13.5" fill="#E2E2F0" rx="8" ry="8" style="stroke:#181818;stroke-width:0.5;"/><path d="M74.9512,21.5 L74.9512,48.5 M61.9512,29.5 L87.9512,29.5 M74.9512,48.5 L61.9512,63.5 M74.9512,48.5 L87.9512,63.5" fill="none" style="stroke:#181818;stroke-width:0.5;"/></g><g class="participant participant-tail" data-entity-uid="part1" data-qualified-name="Company" id="part1-tail"><text fill="#000000" font-family="sans-serif" font-size="14" lengthAdjust="spacing" textLength="63.9023" x="40" y="832.3418">Company</text><ellipse cx="74.9512" cy="843.7949" fill="#E2E2F0" rx="8" ry="8" style="stroke:#181818;stroke-width:0.5;"/><path d="M74.9512,851.7949 L74.9512,878.7949 M61.9512,859.7949 L87.9512,859.7949 M74.9512,878.7949 L61.9512,893.7949 M74.9512,878.7949 L87.9512,893.7949" fill="none" style="stroke:#181818;stroke-width:0.5;"/></g><g class="participant participant-head" data-entity-uid="part2" data-qualified-name="App" id="part2-head"><rect fill="#E2E2F0" height="30.4883" rx="2.5" ry="2.5" style="stroke:#181818;stroke-width:0.5;" width="41.2822" x="433.8804" y="50"/><text fill="#000000" font-family="sans-serif" font-size="14" lengthAdjust="spacing" textLength="27.2822" x="440.8804" y="70.5352">App</text></g><g class="participant participant-tail" data-entity-uid="part2" data-qualified-name="App" id="part2-tail"><rect fill="#E2E2F0" height="30.4883" rx="2.5" ry="2.5" style="stroke:#181818;stroke-width:0.5;" width="41.2822" x="433.8804" y="818.8066"/><text fill="#000000" font-family="sans-serif" font-size="14" lengthAdjust="spacing" textLength="27.2822" x="440.8804" y="839.3418">App</text></g><g class="participant participant-head" data-entity-uid="part3" data-qualified-name="Backend" id="part3-head"><rect fill="#E2E2F0" height="30.4883" rx="2.5" ry="2.5" style="stroke:#181818;stroke-width:0.5;" width="70.4375" x="715.96" y="50"/><text fill="#000000" font-family="sans-serif" font-size="14" lengthAdjust="spacing" textLength="56.4375" x="722.96" y="70.5352">Backend</text></g><g class="participant participant-tail" data-entity-uid="part3" data-qualified-name="Backend" id="part3-tail"><rect fill="#E2E2F0" height="30.4883" rx="2.5" ry="2.5" style="stroke:#181818;stroke-width:0.5;" width="70.4375" x="715.96" y="818.8066"/><text fill="#000000" font-family="sans-serif" font-size="14" lengthAdjust="spacing" textLength="56.4375" x="722.96" y="839.3418">Backend</text></g><g class="message" data-entity-1="part1" data-entity-2="part2" id="msg1"><polygon fill="#181818" points="442.5215,108.7988,452.5215,112.7988,442.5215,116.7988,446.5215,112.7988" style="stroke:#181818;stroke-width:1;"/><line style="stroke:#181818;stroke-width:1;" x1="74.9512" x2="448.5215" y1="112.7988" y2="112.7988"/><text fill="#000000" font-family="sans-serif" font-size="13" lengthAdjust="spacing" textLength="161.2686" x="81.9512" y="108.0566">Navigate to "Find Drivers"</text></g><g class="message" data-entity-1="part2" data-entity-2="part3" id="msg2"><polygon fill="#181818" points="739.1787,138.1094,749.1787,142.1094,739.1787,146.1094,743.1787,142.1094" style="stroke:#181818;stroke-width:1;"/><line style="stroke:#181818;stroke-width:1;" x1="454.5215" x2="745.1787" y1="142.1094" y2="142.1094"/><text fill="#000000" font-family="sans-serif" font-size="13" lengthAdjust="spacing" textLength="272.6572" x="461.5215" y="137.3672">Fetch campaigns with pending applications</text></g><g class="message" data-entity-1="part3" data-entity-2="part2" id="msg3"><polygon fill="#181818" points="465.5215,167.4199,455.5215,171.4199,465.5215,175.4199,461.5215,171.4199" style="stroke:#181818;stroke-width:1;"/><line style="stroke:#181818;stroke-width:1;" x1="459.5215" x2="750.1787" y1="171.4199" y2="171.4199"/><text fill="#000000" font-family="sans-serif" font-size="13" lengthAdjust="spacing" textLength="86.7217" x="471.5215" y="166.6777">Campaign list</text></g><path d="M10,186.4199 L72.1387,186.4199 L72.1387,193.7305 L62.1387,203.7305 L10,203.7305 L10,186.4199" fill="#EEEEEE" style="stroke:#000000;stroke-width:1.5;"/><rect fill="none" height="616.3867" style="stroke:#000000;stroke-width:1.5;" width="1083.8433" x="10" y="186.4199"/><text fill="#000000" font-family="sans-serif" font-size="13" font-weight="bold" lengthAdjust="spacing" textLength="17.1387" x="25" y="199.9883">alt</text><text fill="#000000" font-family="sans-serif" font-size="11" font-weight="bold" lengthAdjust="spacing" textLength="125.1733" x="87.1387" y="199.0547">[Campaigns available]</text><g class="message" data-entity-1="part1" data-entity-2="part2" id="msg4"><polygon fill="#181818" points="442.5215,221.041,452.5215,225.041,442.5215,229.041,446.5215,225.041" style="stroke:#181818;stroke-width:1;"/><line style="stroke:#181818;stroke-width:1;" x1="74.9512" x2="448.5215" y1="225.041" y2="225.041"/><text fill="#000000" font-family="sans-serif" font-size="13" lengthAdjust="spacing" textLength="102.1465" x="81.9512" y="220.2988">Select campaign</text></g><g class="message" data-entity-1="part2" data-entity-2="part3" id="msg5"><polygon fill="#181818" points="739.1787,250.3516,749.1787,254.3516,739.1787,258.3516,743.1787,254.3516" style="stroke:#181818;stroke-width:1;"/><line style="stroke:#181818;stroke-width:1;" x1="454.5215" x2="745.1787" y1="254.3516" y2="254.3516"/><text fill="#000000" font-family="sans-serif" font-size="13" lengthAdjust="spacing" textLength="169.8315" x="461.5215" y="249.6094">Fetch pending applications</text></g><g class="message" data-entity-1="part3" data-entity-2="part2" id="msg6"><polygon fill="#181818" points="465.5215,279.6621,455.5215,283.6621,465.5215,287.6621,461.5215,283.6621" style="stroke:#181818;stroke-width:1;"/><line style="stroke:#181818;stroke-width:1;" x1="459.5215" x2="750.1787" y1="283.6621" y2="283.6621"/><text fill="#000000" font-family="sans-serif" font-size="13" lengthAdjust="spacing" textLength="263.0469" x="471.5215" y="278.9199">Applications (driver name, vehicle, rating)</text></g><path d="M20,298.6621 L82.1387,298.6621 L82.1387,305.9727 L72.1387,315.9727 L20,315.9727 L20,298.6621" fill="#EEEEEE" style="stroke:#000000;stroke-width:1.5;"/><rect fill="none" height="452.8789" style="stroke:#000000;stroke-width:1.5;" width="1063.8433" x="20" y="298.6621"/><text fill="#000000" font-family="sans-serif" font-size="13" font-weight="bold" lengthAdjust="spacing" textLength="17.1387" x="35" y="312.2305">alt</text><text fill="#000000" font-family="sans-serif" font-size="11" font-weight="bold" lengthAdjust="spacing" textLength="109.6348" x="97.1387" y="311.2969">[Applications exist]</text><g class="message" data-entity-1="part2" data-entity-2="part1" id="msg7"><polygon fill="#181818" points="85.9512,333.2832,75.9512,337.2832,85.9512,341.2832,81.9512,337.2832" style="stroke:#181818;stroke-width:1;"/><line style="stroke:#181818;stroke-width:1;" x1="79.9512" x2="453.5215" y1="337.2832" y2="337.2832"/><text fill="#000000" font-family="sans-serif" font-size="13" lengthAdjust="spacing" textLength="182.5142" x="91.9512" y="332.541">Display list with filters &amp; sort</text></g><g class="message" data-entity-1="part1" data-entity-2="part2" id="msg8"><polygon fill="#181818" points="442.5215,362.5938,452.5215,366.5938,442.5215,370.5938,446.5215,366.5938" style="stroke:#181818;stroke-width:1;"/><line style="stroke:#181818;stroke-width:1;" x1="74.9512" x2="448.5215" y1="366.5938" y2="366.5938"/><text fill="#000000" font-family="sans-serif" font-size="13" lengthAdjust="spacing" textLength="132.4819" x="81.9512" y="361.8516">Apply filters / search</text></g><g class="message" data-entity-1="part1" data-entity-2="part2" id="msg9"><polygon fill="#181818" points="442.5215,391.9043,452.5215,395.9043,442.5215,399.9043,446.5215,395.9043" style="stroke:#181818;stroke-width:1;"/><line style="stroke:#181818;stroke-width:1;" x1="74.9512" x2="448.5215" y1="395.9043" y2="395.9043"/><text fill="#000000" font-family="sans-serif" font-size="13" lengthAdjust="spacing" textLength="163.4141" x="81.9512" y="391.1621">Select a single application</text></g><g class="message" data-entity-1="part2" data-entity-2="part1" id="msg10"><polygon fill="#181818" points="85.9512,421.2148,75.9512,425.2148,85.9512,429.2148,81.9512,425.2148" style="stroke:#181818;stroke-width:1;"/><line style="stroke:#181818;stroke-width:1;" x1="79.9512" x2="453.5215" y1="425.2148" y2="425.2148"/><text fill="#000000" font-family="sans-serif" font-size="13" lengthAdjust="spacing" textLength="333.9819" x="91.9512" y="420.4727">Show full driver profile (compliance, projected reach)</text></g><g class="message" data-entity-1="part1" data-entity-2="part2" id="msg11"><polygon fill="#181818" points="442.5215,450.5254,452.5215,454.5254,442.5215,458.5254,446.5215,454.5254" style="stroke:#181818;stroke-width:1;"/><line style="stroke:#181818;stroke-width:1;" x1="74.9512" x2="448.5215" y1="454.5254" y2="454.5254"/><text fill="#000000" font-family="sans-serif" font-size="13" lengthAdjust="spacing" textLength="145.4502" x="81.9512" y="449.7832">Click Accept or Decline</text></g><g class="message" data-entity-1="part2" data-entity-2="part3" id="msg12"><polygon fill="#181818" points="739.1787,479.8359,749.1787,483.8359,739.1787,487.8359,743.1787,483.8359" style="stroke:#181818;stroke-width:1;"/><line style="stroke:#181818;stroke-width:1;" x1="454.5215" x2="745.1787" y1="483.8359" y2="483.8359"/><text fill="#000000" font-family="sans-serif" font-size="13" lengthAdjust="spacing" textLength="98.0142" x="461.5215" y="479.0938">Persist decision</text></g><path d="M30,498.8359 L92.1387,498.8359 L92.1387,506.1465 L82.1387,516.1465 L30,516.1465 L30,498.8359" fill="#EEEEEE" style="stroke:#000000;stroke-width:1.5;"/><rect fill="none" height="201.4395" style="stroke:#000000;stroke-width:1.5;" width="1043.8433" x="30" y="498.8359"/><text fill="#000000" font-family="sans-serif" font-size="13" font-weight="bold" lengthAdjust="spacing" textLength="17.1387" x="45" y="512.4043">alt</text><text fill="#000000" font-family="sans-serif" font-size="11" font-weight="bold" lengthAdjust="spacing" textLength="52.2554" x="107.1387" y="511.4707">[Success]</text><g class="message" data-entity-1="part3" data-entity-2="part2" id="msg13"><polygon fill="#181818" points="465.5215,559.4229,455.5215,563.4229,465.5215,567.4229,461.5215,563.4229" style="stroke:#181818;stroke-width:1;"/><line style="stroke:#181818;stroke-width:1;" x1="459.5215" x2="750.1787" y1="563.4229" y2="563.4229"/><text fill="#000000" font-family="sans-serif" font-size="13" lengthAdjust="spacing" textLength="18.5859" x="471.5215" y="558.6807">OK</text></g><path d="M756,521.1465 L756,592.1465 L1058,592.1465 L1058,531.1465 L1048,521.1465 L756,521.1465" fill="#FEFFDD" style="stroke:#181818;stroke-width:0.5;"/><path d="M1048,521.1465 L1048,531.1465 L1058,531.1465 L1048,521.1465" fill="#FEFFDD" style="stroke:#181818;stroke-width:0.5;"/><text fill="#000000" font-family="sans-serif" font-size="13" lengthAdjust="spacing" textLength="67.1772" x="762" y="538.7148">On accept:</text><text fill="#000000" font-family="sans-serif" font-size="13" lengthAdjust="spacing" textLength="188.5317" x="762" y="554.0254">- Driver added to participants</text><text fill="#000000" font-family="sans-serif" font-size="13" lengthAdjust="spacing" textLength="249.2026" x="762" y="569.3359">- Eligible for messaging (UC05 / FR.23)</text><text fill="#000000" font-family="sans-serif" font-size="13" lengthAdjust="spacing" textLength="281.6646" x="762" y="584.6465">- Decrement remaining-driver-slots counter</text><g class="message" data-entity-1="part2" data-entity-2="part1" id="msg15"><polygon fill="#181818" points="85.9512,614.6992,75.9512,618.6992,85.9512,622.6992,81.9512,618.6992" style="stroke:#181818;stroke-width:1;"/><line style="stroke:#181818;stroke-width:1;" x1="79.9512" x2="453.5215" y1="618.6992" y2="618.6992"/><text fill="#000000" font-family="sans-serif" font-size="13" lengthAdjust="spacing" textLength="177.9756" x="91.9512" y="613.957">Refresh list, continue review</text></g><line style="stroke:#000000;stroke-width:1;stroke-dasharray:2,2;" x1="30" x2="1073.8433" y1="627.6992" y2="627.6992"/><text fill="#000000" font-family="sans-serif" font-size="11" font-weight="bold" lengthAdjust="spacing" textLength="46.7607" x="35" y="638.334">[Failure]</text><g class="message" data-entity-1="part3" data-entity-2="part2" id="msg16"><polygon fill="#181818" points="465.5215,658.9648,455.5215,662.9648,465.5215,666.9648,461.5215,662.9648" style="stroke:#181818;stroke-width:1;"/><line style="stroke:#181818;stroke-width:1;" x1="459.5215" x2="750.1787" y1="662.9648" y2="662.9648"/><text fill="#000000" font-family="sans-serif" font-size="13" lengthAdjust="spacing" textLength="30.9893" x="471.5215" y="658.2227">Error</text></g><g class="message" data-entity-1="part2" data-entity-2="part1" id="msg17"><polygon fill="#181818" points="85.9512,688.2754,75.9512,692.2754,85.9512,696.2754,81.9512,692.2754" style="stroke:#181818;stroke-width:1;"/><line style="stroke:#181818;stroke-width:1;" x1="79.9512" x2="453.5215" y1="692.2754" y2="692.2754"/><text fill="#000000" font-family="sans-serif" font-size="13" lengthAdjust="spacing" textLength="235.2188" x="91.9512" y="687.5332">Preserve previous state, surface error</text></g><line style="stroke:#000000;stroke-width:1;stroke-dasharray:2,2;" x1="20" x2="1083.8433" y1="708.2754" y2="708.2754"/><text fill="#000000" font-family="sans-serif" font-size="11" font-weight="bold" lengthAdjust="spacing" textLength="96.2822" x="25" y="718.9102">[No applications]</text><g class="message" data-entity-1="part2" data-entity-2="part1" id="msg18"><polygon fill="#181818" points="85.9512,739.541,75.9512,743.541,85.9512,747.541,81.9512,743.541" style="stroke:#181818;stroke-width:1;"/><line style="stroke:#181818;stroke-width:1;" x1="79.9512" x2="453.5215" y1="743.541" y2="743.541"/><text fill="#000000" font-family="sans-serif" font-size="13" lengthAdjust="spacing" textLength="284.7114" x="91.9512" y="738.7988">Show empty state + "Share Campaign" action</text></g><line style="stroke:#000000;stroke-width:1;stroke-dasharray:2,2;" x1="10" x2="1093.8433" y1="759.541" y2="759.541"/><text fill="#000000" font-family="sans-serif" font-size="11" font-weight="bold" lengthAdjust="spacing" textLength="239.2339" x="15" y="770.1758">[No campaigns with pending applications]</text><g class="message" data-entity-1="part2" data-entity-2="part1" id="msg19"><polygon fill="#181818" points="85.9512,790.8066,75.9512,794.8066,85.9512,798.8066,81.9512,794.8066" style="stroke:#181818;stroke-width:1;"/><line style="stroke:#181818;stroke-width:1;" x1="79.9512" x2="453.5215" y1="794.8066" y2="794.8066"/><text fill="#000000" font-family="sans-serif" font-size="13" lengthAdjust="spacing" textLength="355.5703" x="91.9512" y="790.0645">Show empty state + shortcut to create campaign (FR.16)</text></g><?plantuml-src ZLHDRzim3BtxLn0v30cMx1FR8OS1MT9S1hH5W_u0JcPihh8aIBAp_FjHZkFMSr9K9uCY-TuZdumgMWzhMpaqnophFc3n0rREmH9kiU428q6qCDcooM7ZkI4V9bbAaBoVg9v8ualOKbGbA9GMN9W01uubEBbZKm0wfrbXP6j2TgxfOTPT4MWECSjGnpuK01jaZRyrPI1dH757cbJiSTkaAzmkaadv8qAh5nampLlDOB2YEJHKijBouUNQ5BEixP0e3uheRv82tUa8dSalOSF1QJosWa-JshEECbXu1y7wvygHteHoxBC_GY3qghoUtyq78GXRJI_5NwUtA-q1zhNMq6bttWeamLH9ZcOqIYOWmJ_IctBmXAgSNIUn5iWdM2b5Be8uRaDAiw7_2Jmlx5x4fT7af3WagdrgclIkbauXzB6BExpxDRWtLcpikIZZ89pEdG5igIr7LulEy81vBZhb6JZqaHMBlXWkfDzeBbZC2dkHMGb9B9Bbfe_hJzzaMzk73r--pYx1aF9KaOaoomhPID7YDFj5q3O6KBOsil91QTART0s2esK-qDvJA5klpQMF4T_MCWjgc0vzAUb0i9MdLdjwVR0ttbl_EkIz099lI2mYABOE4AByHkOGQhz7HK237jB-jE2MnAqTlz3hBgNAnUEfFRo7oQv4J_tVOoABxPtUefmHtlAVUYjeAEN5gZecUyWMK_3S7gQoyS_VPra2_mS0?></g></svg>