<svg xmlns="http://www.w3.org/2000/svg" xmlns:xlink="http://www.w3.org/1999/xlink" contentStyleType="text/css" height="459px" preserveAspectRatio="none" style="width:682px;height:459px;background:#FFFFFF;" version="1.1" viewBox="0 0 682 459" width="682px" zoomAndPan="magnify"><defs/><g><rect fill="none" height="191.8184" style="stroke:#000000;stroke-width:1.5;" width="606.9536" x="10" y="170.1094"/><line style="stroke:#181818;stroke-width:0.5;stroke-dasharray:5.0,5.0;" x1="70" x2="70" y1="81.4883" y2="378.9277"/><line style="stroke:#181818;stroke-width:0.5;stroke-dasharray:5.0,5.0;" x1="385.9102" x2="385.9102" y1="81.4883" y2="378.9277"/><text fill="#000000" font-family="sans-serif" font-size="14" lengthAdjust="spacing" textLength="94.2676" x="20" y="78.5352">CompanyUser</text><ellipse cx="70.1338" cy="13.5" fill="#E2E2F0" rx="8" ry="8" style="stroke:#181818;stroke-width:0.5;"/><path d="M70.1338,21.5 L70.1338,48.5 M57.1338,29.5 L83.1338,29.5 M70.1338,48.5 L57.1338,63.5 M70.1338,48.5 L83.1338,63.5 " fill="none" style="stroke:#181818;stroke-width:0.5;"/><text fill="#000000" font-family="sans-serif" font-size="14" lengthAdjust="spacing" textLength="94.2676" x="20" y="391.4629">CompanyUser</text><ellipse cx="70.1338" cy="402.916" fill="#E2E2F0" rx="8" ry="8" style="stroke:#181818;stroke-width:0.5;"/><path d="M70.1338,410.916 L70.1338,437.916 M57.1338,418.916 L83.1338,418.916 M70.1338,437.916 L57.1338,452.916 M70.1338,437.916 L83.1338,452.916 " fill="none" style="stroke:#181818;stroke-width:0.5;"/><rect fill="#E2E2F0" height="30.4883" rx="2.5" ry="2.5" style="stroke:#181818;stroke-width:0.5;" width="41.2822" x="365.9102" y="50"/><text fill="#000000" font-family="sans-serif" font-size="14" lengthAdjust="spacing" textLength="27.2822" x="372.9102" y="70.5352">App</text><rect fill="#E2E2F0" height="30.4883" rx="2.5" ry="2.5" style="stroke:#181818;stroke-width:0.5;" width="41.2822" x="365.9102" y="377.9277"/><text fill="#000000" font-family="sans-serif" font-size="14" lengthAdjust="spacing" textLength="27.2822" x="372.9102" y="398.4629">App</text><polygon fill="#181818" points="374.5513,108.7988,384.5513,112.7988,374.5513,116.7988,378.5513,112.7988" style="stroke:#181818;stroke-width:1.0;"/><line style="stroke:#181818;stroke-width:1.0;" x1="70.1338" x2="380.5513" y1="112.7988" y2="112.7988"/><text fill="#000000" font-family="sans-serif" font-size="13" lengthAdjust="spacing" textLength="150.8013" x="77.1338" y="108.0566">Navigate to "Stats" page</text><line style="stroke:#181818;stroke-width:1.0;" x1="386.5513" x2="428.5513" y1="142.1094" y2="142.1094"/><line style="stroke:#181818;stroke-width:1.0;" x1="428.5513" x2="428.5513" y1="142.1094" y2="155.1094"/><line style="stroke:#181818;stroke-width:1.0;" x1="387.5513" x2="428.5513" y1="155.1094" y2="155.1094"/><polygon fill="#181818" points="397.5513,151.1094,387.5513,155.1094,397.5513,159.1094,393.5513,155.1094" style="stroke:#181818;stroke-width:1.0;"/><text fill="#000000" font-family="sans-serif" font-size="13" lengthAdjust="spacing" textLength="281.6836" x="393.5513" y="137.3672">Check for existing campaigns (active + past)</text><path d="M10,170.1094 L72.1387,170.1094 L72.1387,177.4199 L62.1387,187.4199 L10,187.4199 L10,170.1094 " fill="#EEEEEE" style="stroke:#000000;stroke-width:1.5;"/><rect fill="none" height="191.8184" style="stroke:#000000;stroke-width:1.5;" width="606.9536" x="10" y="170.1094"/><text fill="#000000" font-family="sans-serif" font-size="13" font-weight="bold" lengthAdjust="spacing" textLength="17.1387" x="25" y="183.6777">alt</text><text fill="#000000" font-family="sans-serif" font-size="11" font-weight="bold" lengthAdjust="spacing" textLength="101.981" x="87.1387" y="182.7441">[Campaigns exist]</text><polygon fill="#181818" points="81.1338,204.7305,71.1338,208.7305,81.1338,212.7305,77.1338,208.7305" style="stroke:#181818;stroke-width:1.0;"/><line style="stroke:#181818;stroke-width:1.0;" x1="75.1338" x2="385.5513" y1="208.7305" y2="208.7305"/><text fill="#000000" font-family="sans-serif" font-size="13" lengthAdjust="spacing" textLength="219.7368" x="87.1338" y="203.9883">Show segmented list (Active | Past)</text><polygon fill="#181818" points="374.5513,234.041,384.5513,238.041,374.5513,242.041,378.5513,238.041" style="stroke:#181818;stroke-width:1.0;"/><line style="stroke:#181818;stroke-width:1.0;" x1="70.1338" x2="380.5513" y1="238.041" y2="238.041"/><text fill="#000000" font-family="sans-serif" font-size="13" lengthAdjust="spacing" textLength="159.5991" x="77.1338" y="233.2988">Select campaign from list</text><line style="stroke:#181818;stroke-width:1.0;" x1="386.5513" x2="428.5513" y1="267.3516" y2="267.3516"/><line style="stroke:#181818;stroke-width:1.0;" x1="428.5513" x2="428.5513" y1="267.3516" y2="280.3516"/><line style="stroke:#181818;stroke-width:1.0;" x1="387.5513" x2="428.5513" y1="280.3516" y2="280.3516"/><polygon fill="#181818" points="397.5513,276.3516,387.5513,280.3516,397.5513,284.3516,393.5513,280.3516" style="stroke:#181818;stroke-width:1.0;"/><text fill="#000000" font-family="sans-serif" font-size="13" lengthAdjust="spacing" textLength="211.4023" x="393.5513" y="262.6094">Load campaign performance data</text><polygon fill="#181818" points="81.1338,305.6621,71.1338,309.6621,81.1338,313.6621,77.1338,309.6621" style="stroke:#181818;stroke-width:1.0;"/><line style="stroke:#181818;stroke-width:1.0;" x1="75.1338" x2="385.5513" y1="309.6621" y2="309.6621"/><text fill="#000000" font-family="sans-serif" font-size="13" lengthAdjust="spacing" textLength="292.4175" x="87.1338" y="304.9199">Display stats (reach, drivers, distance, budget)</text><line style="stroke:#000000;stroke-width:1.0;stroke-dasharray:2.0,2.0;" x1="10" x2="616.9536" y1="318.6621" y2="318.6621"/><text fill="#000000" font-family="sans-serif" font-size="11" font-weight="bold" lengthAdjust="spacing" textLength="88.2793" x="15" y="329.2969">[No campaigns]</text><polygon fill="#181818" points="81.1338,349.9277,71.1338,353.9277,81.1338,357.9277,77.1338,353.9277" style="stroke:#181818;stroke-width:1.0;"/><line style="stroke:#181818;stroke-width:1.0;" x1="75.1338" x2="385.5513" y1="353.9277" y2="353.9277"/><text fill="#000000" font-family="sans-serif" font-size="13" lengthAdjust="spacing" textLength="208.5332" x="87.1338" y="349.1855">Display "No campaigns available"</text><!--SRC=[XP11JiCm44NtFiLNLa6K2tI1L8Kbgf0Y3Z2rfuw5Orls4AZ4uN5Ib6O1mYjRy-VDyv2McD75CL6ul1REIcqUU7Z48INiSQJ9MHA6H3Iza9G6YIohkRocke7r6ywLo9-kY0iMcYhDsL3GaXOtCUvhOv4xfSWBkhMyT2ZKyuFSUkpH3_43XUt8GTZ0rp3QmvNuXPU5E3V_Qj-pPosh2yuvZWjYE-yQVOvaRi74kVvcfA0PXeJ-zdjo9NcweCoxGPkPzB23oTKlbtgfmsRA3gTtOxdAiY-COxmjw7zsius39dAUJfuRnS6eRm00]--></g></svg>