<?plantuml 1.2026.2?><svg xmlns="http://www.w3.org/2000/svg" xmlns:xlink="http://www.w3.org/1999/xlink" contentStyleType="text/css" data-diagram-type="SEQUENCE" height="1191px" preserveAspectRatio="none" style="width:1171px;height:1191px;background:#FFFFFF;" version="1.1" viewBox="0 0 1171 1191" width="1171px" zoomAndPan="magnify"><defs/><g><rect fill="none" height="760.6738" style="stroke:#000000;stroke-width:1.5;" width="1154.3643" x="10" y="186.4199"/><rect fill="none" height="46.6211" style="stroke:#000000;stroke-width:1.5;" width="446.0117" x="20" y="311.6621"/><rect fill="none" height="274.0605" style="stroke:#000000;stroke-width:1.5;" width="1134.3643" x="20" y="401.5938"/><rect fill="none" height="88.9316" style="stroke:#000000;stroke-width:1.5;" width="285.0093" x="714.9976" y="821.8516"/><g class="participant-lifeline" data-entity-uid="part1" data-qualified-name="User" id="part1-lifeline"><g><title>Unregistered User</title><rect fill="#000000" fill-opacity="0.00000" height="1029.1582" width="8" x="90.0005" y="81.4883"/><line style="stroke:#181818;stroke-width:0.5;stroke-dasharray:5,5;" x1="94" x2="94" y1="81.4883" y2="1110.6465"/></g></g><g class="participant-lifeline" data-entity-uid="part2" data-qualified-name="App" id="part2-lifeline"><g><title>App</title><rect fill="#000000" fill-opacity="0.00000" height="1029.1582" width="8" x="431.3706" y="81.4883"/><line style="stroke:#181818;stroke-width:0.5;stroke-dasharray:5,5;" x1="434.7295" x2="434.7295" y1="81.4883" y2="1110.6465"/></g></g><g class="participant-lifeline" data-entity-uid="part3" data-qualified-name="AuthService" id="part3-lifeline"><g><title>AuthService</title><rect fill="#000000" fill-opacity="0.00000" height="1029.1582" width="8" x="767.7998" y="81.4883"/><line style="stroke:#181818;stroke-width:0.5;stroke-dasharray:5,5;" x1="770.9976" x2="770.9976" y1="81.4883" y2="1110.6465"/></g></g><g class="participant-lifeline" data-entity-uid="part4" data-qualified-name="DriverService" id="part4-lifeline"><g><title>DriverService</title><rect fill="#000000" fill-opacity="0.00000" height="1029.1582" width="8" x="934.8228" y="81.4883"/><line style="stroke:#181818;stroke-width:0.5;stroke-dasharray:5,5;" x1="938.6387" x2="938.6387" y1="81.4883" y2="1110.6465"/></g></g><g class="participant-lifeline" data-entity-uid="part5" data-qualified-name="Google" id="part5-lifeline"><g><title>Google</title><rect fill="#000000" fill-opacity="0.00000" height="1029.1582" width="8" x="1026.9531" y="81.4883"/><line style="stroke:#181818;stroke-width:0.5;stroke-dasharray:5,5;" x1="1030.0068" x2="1030.0068" y1="81.4883" y2="1110.6465"/></g></g><g class="participant participant-head" data-entity-uid="part1" data-qualified-name="User" id="part1-head"><text fill="#000000" font-family="sans-serif" font-size="14" lengthAdjust="spacing" textLength="122.001" x="30" y="78.5352">Unregistered User</text><ellipse cx="94.0005" cy="13.5" fill="#E2E2F0" rx="8" ry="8" style="stroke:#181818;stroke-width:0.5;"/><path d="M94.0005,21.5 L94.0005,48.5 M81.0005,29.5 L107.0005,29.5 M94.0005,48.5 L81.0005,63.5 M94.0005,48.5 L107.0005,63.5" fill="none" style="stroke:#181818;stroke-width:0.5;"/></g><g class="participant participant-tail" data-entity-uid="part1" data-qualified-name="User" id="part1-tail"><text fill="#000000" font-family="sans-serif" font-size="14" lengthAdjust="spacing" textLength="122.001" x="30" y="1123.1816">Unregistered User</text><ellipse cx="94.0005" cy="1134.6348" fill="#E2E2F0" rx="8" ry="8" style="stroke:#181818;stroke-width:0.5;"/><path d="M94.0005,1142.6348 L94.0005,1169.6348 M81.0005,1150.6348 L107.0005,1150.6348 M94.0005,1169.6348 L81.0005,1184.6348 M94.0005,1169.6348 L107.0005,1184.6348" fill="none" style="stroke:#181818;stroke-width:0.5;"/></g><g class="participant participant-head" data-entity-uid="part2" data-qualified-name="App" id="part2-head"><rect fill="#E2E2F0" height="30.4883" rx="2.5" ry="2.5" style="stroke:#181818;stroke-width:0.5;" width="41.2822" x="414.7295" y="50"/><text fill="#000000" font-family="sans-serif" font-size="14" lengthAdjust="spacing" textLength="27.2822" x="421.7295" y="70.5352">App</text></g><g class="participant participant-tail" data-entity-uid="part2" data-qualified-name="App" id="part2-tail"><rect fill="#E2E2F0" height="30.4883" rx="2.5" ry="2.5" style="stroke:#181818;stroke-width:0.5;" width="41.2822" x="414.7295" y="1109.6465"/><text fill="#000000" font-family="sans-serif" font-size="14" lengthAdjust="spacing" textLength="27.2822" x="421.7295" y="1130.1816">App</text></g><g class="participant participant-head" data-entity-uid="part3" data-qualified-name="AuthService" id="part3-head"><rect fill="#E2E2F0" height="30.4883" rx="2.5" ry="2.5" style="stroke:#181818;stroke-width:0.5;" width="93.6045" x="724.9976" y="50"/><text fill="#000000" font-family="sans-serif" font-size="14" lengthAdjust="spacing" textLength="79.6045" x="731.9976" y="70.5352">AuthService</text></g><g class="participant participant-tail" data-entity-uid="part3" data-qualified-name="AuthService" id="part3-tail"><rect fill="#E2E2F0" height="30.4883" rx="2.5" ry="2.5" style="stroke:#181818;stroke-width:0.5;" width="93.6045" x="724.9976" y="1109.6465"/><text fill="#000000" font-family="sans-serif" font-size="14" lengthAdjust="spacing" textLength="79.6045" x="731.9976" y="1130.1816">AuthService</text></g><g class="participant participant-head" data-entity-uid="part4" data-qualified-name="DriverService" id="part4-head"><rect fill="#E2E2F0" height="30.4883" rx="2.5" ry="2.5" style="stroke:#181818;stroke-width:0.5;" width="102.3682" x="887.6387" y="50"/><text fill="#000000" font-family="sans-serif" font-size="14" lengthAdjust="spacing" textLength="88.3682" x="894.6387" y="70.5352">DriverService</text></g><g class="participant participant-tail" data-entity-uid="part4" data-qualified-name="DriverService" id="part4-tail"><rect fill="#E2E2F0" height="30.4883" rx="2.5" ry="2.5" style="stroke:#181818;stroke-width:0.5;" width="102.3682" x="887.6387" y="1109.6465"/><text fill="#000000" font-family="sans-serif" font-size="14" lengthAdjust="spacing" textLength="88.3682" x="894.6387" y="1130.1816">DriverService</text></g><g class="participant participant-head" data-entity-uid="part5" data-qualified-name="Google" id="part5-head"><rect fill="#E2E2F0" height="30.4883" rx="2.5" ry="2.5" style="stroke:#181818;stroke-width:0.5;" width="61.8926" x="1000.0068" y="50"/><text fill="#000000" font-family="sans-serif" font-size="14" lengthAdjust="spacing" textLength="47.8926" x="1007.0068" y="70.5352">Google</text></g><g class="participant participant-tail" data-entity-uid="part5" data-qualified-name="Google" id="part5-tail"><rect fill="#E2E2F0" height="30.4883" rx="2.5" ry="2.5" style="stroke:#181818;stroke-width:0.5;" width="61.8926" x="1000.0068" y="1109.6465"/><text fill="#000000" font-family="sans-serif" font-size="14" lengthAdjust="spacing" textLength="47.8926" x="1007.0068" y="1130.1816">Google</text></g><g class="message" data-entity-1="part1" data-entity-2="part2" id="msg1"><polygon fill="#181818" points="423.3706,108.7988,433.3706,112.7988,423.3706,116.7988,427.3706,112.7988" style="stroke:#181818;stroke-width:1;"/><line style="stroke:#181818;stroke-width:1;" x1="94.0005" x2="429.3706" y1="112.7988" y2="112.7988"/><text fill="#000000" font-family="sans-serif" font-size="13" lengthAdjust="spacing" textLength="210.2344" x="101.0005" y="108.0566">Tap "Sign Up" on welcome screen</text></g><g class="message" data-entity-1="part2" data-entity-2="part1" id="msg2"><polygon fill="#181818" points="105.0005,138.1094,95.0005,142.1094,105.0005,146.1094,101.0005,142.1094" style="stroke:#181818;stroke-width:1;"/><line style="stroke:#181818;stroke-width:1;" x1="99.0005" x2="434.3706" y1="142.1094" y2="142.1094"/><text fill="#000000" font-family="sans-serif" font-size="13" lengthAdjust="spacing" textLength="144.4536" x="111.0005" y="137.3672">Show role picker (FR.1)</text></g><g class="message" data-entity-1="part1" data-entity-2="part2" id="msg3"><polygon fill="#181818" points="423.3706,167.4199,433.3706,171.4199,423.3706,175.4199,427.3706,171.4199" style="stroke:#181818;stroke-width:1;"/><line style="stroke:#181818;stroke-width:1;" x1="94.0005" x2="429.3706" y1="171.4199" y2="171.4199"/><text fill="#000000" font-family="sans-serif" font-size="13" lengthAdjust="spacing" textLength="88.6958" x="101.0005" y="166.6777">Select "Driver"</text></g><path d="M10,186.4199 L72.1387,186.4199 L72.1387,193.7305 L62.1387,203.7305 L10,203.7305 L10,186.4199" fill="#EEEEEE" style="stroke:#000000;stroke-width:1.5;"/><rect fill="none" height="760.6738" style="stroke:#000000;stroke-width:1.5;" width="1154.3643" x="10" y="186.4199"/><text fill="#000000" font-family="sans-serif" font-size="13" font-weight="bold" lengthAdjust="spacing" textLength="17.1387" x="25" y="199.9883">alt</text><text fill="#000000" font-family="sans-serif" font-size="11" font-weight="bold" lengthAdjust="spacing" textLength="132.9453" x="87.1387" y="199.0547">[Password registration]</text><g class="message" data-entity-1="part2" data-entity-2="part1" id="msg4"><polygon fill="#181818" points="105.0005,221.041,95.0005,225.041,105.0005,229.041,101.0005,225.041" style="stroke:#181818;stroke-width:1;"/><line style="stroke:#181818;stroke-width:1;" x1="99.0005" x2="434.3706" y1="225.041" y2="225.041"/><text fill="#000000" font-family="sans-serif" font-size="13" lengthAdjust="spacing" textLength="185.269" x="111.0005" y="220.2988">Show driver registration form</text></g><g class="message" data-entity-1="part1" data-entity-2="part2" id="msg5"><polygon fill="#181818" points="423.3706,250.3516,433.3706,254.3516,423.3706,258.3516,427.3706,254.3516" style="stroke:#181818;stroke-width:1;"/><line style="stroke:#181818;stroke-width:1;" x1="94.0005" x2="429.3706" y1="254.3516" y2="254.3516"/><text fill="#000000" font-family="sans-serif" font-size="13" lengthAdjust="spacing" textLength="209.3711" x="101.0005" y="249.6094">Submit (name, e-mail, password)</text></g><g class="message" data-entity-1="part2" data-entity-2="part2" id="msg6"><line style="stroke:#181818;stroke-width:1;" x1="435.3706" x2="477.3706" y1="283.6621" y2="283.6621"/><line style="stroke:#181818;stroke-width:1;" x1="477.3706" x2="477.3706" y1="283.6621" y2="296.6621"/><line style="stroke:#181818;stroke-width:1;" x1="436.3706" x2="477.3706" y1="296.6621" y2="296.6621"/><polygon fill="#181818" points="446.3706,292.6621,436.3706,296.6621,446.3706,300.6621,442.3706,296.6621" style="stroke:#181818;stroke-width:1;"/><text fill="#000000" font-family="sans-serif" font-size="13" lengthAdjust="spacing" textLength="322.4292" x="442.3706" y="278.9199">Validate format (e-mail syntax, password strength)</text></g><path d="M20,311.6621 L82.1387,311.6621 L82.1387,318.9727 L72.1387,328.9727 L20,328.9727 L20,311.6621" fill="#EEEEEE" style="stroke:#000000;stroke-width:1.5;"/><rect fill="none" height="46.6211" style="stroke:#000000;stroke-width:1.5;" width="446.0117" x="20" y="311.6621"/><text fill="#000000" font-family="sans-serif" font-size="13" font-weight="bold" lengthAdjust="spacing" textLength="17.1387" x="35" y="325.2305">alt</text><text fill="#000000" font-family="sans-serif" font-size="11" font-weight="bold" lengthAdjust="spacing" textLength="79.8574" x="97.1387" y="324.2969">[Invalid input]</text><g class="message" data-entity-1="part2" data-entity-2="part1" id="msg7"><polygon fill="#181818" points="105.0005,346.2832,95.0005,350.2832,105.0005,354.2832,101.0005,350.2832" style="stroke:#181818;stroke-width:1;"/><line style="stroke:#181818;stroke-width:1;" x1="99.0005" x2="434.3706" y1="350.2832" y2="350.2832"/><text fill="#000000" font-family="sans-serif" font-size="13" lengthAdjust="spacing" textLength="273.8633" x="111.0005" y="345.541">Highlight invalid fields, prevent submission</text></g><g class="message" data-entity-1="part2" data-entity-2="part3" id="msg8"><polygon fill="#181818" points="759.7998,382.5938,769.7998,386.5938,759.7998,390.5938,763.7998,386.5938" style="stroke:#181818;stroke-width:1;"/><line style="stroke:#181818;stroke-width:1;" x1="435.3706" x2="765.7998" y1="386.5938" y2="386.5938"/><text fill="#000000" font-family="sans-serif" font-size="13" lengthAdjust="spacing" textLength="200.4272" x="442.3706" y="381.8516">Check e-mail uniqueness (FR.2)</text></g><path d="M20,401.5938 L82.1387,401.5938 L82.1387,408.9043 L72.1387,418.9043 L20,418.9043 L20,401.5938" fill="#EEEEEE" style="stroke:#000000;stroke-width:1.5;"/><rect fill="none" height="274.0605" style="stroke:#000000;stroke-width:1.5;" width="1134.3643" x="20" y="401.5938"/><text fill="#000000" font-family="sans-serif" font-size="13" font-weight="bold" lengthAdjust="spacing" textLength="17.1387" x="35" y="415.1621">alt</text><text fill="#000000" font-family="sans-serif" font-size="11" font-weight="bold" lengthAdjust="spacing" textLength="153.1191" x="97.1387" y="414.2285">[E-mail already registered]</text><g class="message" data-entity-1="part3" data-entity-2="part2" id="msg9"><polygon fill="#181818" points="446.3706,436.2148,436.3706,440.2148,446.3706,444.2148,442.3706,440.2148" style="stroke:#181818;stroke-width:1;"/><line style="stroke:#181818;stroke-width:1;" x1="440.3706" x2="770.7998" y1="440.2148" y2="440.2148"/><text fill="#000000" font-family="sans-serif" font-size="13" lengthAdjust="spacing" textLength="48.8643" x="452.3706" y="435.4727">Conflict</text></g><g class="message" data-entity-1="part2" data-entity-2="part1" id="msg10"><polygon fill="#181818" points="105.0005,465.5254,95.0005,469.5254,105.0005,473.5254,101.0005,469.5254" style="stroke:#181818;stroke-width:1;"/><line style="stroke:#181818;stroke-width:1;" x1="99.0005" x2="434.3706" y1="469.5254" y2="469.5254"/><text fill="#000000" font-family="sans-serif" font-size="13" lengthAdjust="spacing" textLength="311.8667" x="111.0005" y="464.7832">Show "E-mail already in use" + Log In link (UC10)</text></g><line style="stroke:#000000;stroke-width:1;stroke-dasharray:2,2;" x1="20" x2="1154.3643" y1="478.5254" y2="478.5254"/><text fill="#000000" font-family="sans-serif" font-size="11" font-weight="bold" lengthAdjust="spacing" textLength="72.1499" x="25" y="489.1602">[E-mail free]</text><g class="message" data-entity-1="part3" data-entity-2="part2" id="msg11"><polygon fill="#181818" points="446.3706,509.791,436.3706,513.791,446.3706,517.791,442.3706,513.791" style="stroke:#181818;stroke-width:1;"/><line style="stroke:#181818;stroke-width:1;" x1="440.3706" x2="770.7998" y1="513.791" y2="513.791"/><text fill="#000000" font-family="sans-serif" font-size="13" lengthAdjust="spacing" textLength="18.5859" x="452.3706" y="509.0488">OK</text></g><g class="message" data-entity-1="part2" data-entity-2="part3" id="msg12"><polygon fill="#181818" points="759.7998,539.1016,769.7998,543.1016,759.7998,547.1016,763.7998,543.1016" style="stroke:#181818;stroke-width:1;"/><line style="stroke:#181818;stroke-width:1;" x1="435.3706" x2="765.7998" y1="543.1016" y2="543.1016"/><text fill="#000000" font-family="sans-serif" font-size="13" lengthAdjust="spacing" textLength="251.5576" x="442.3706" y="538.3594">Create auth record (BCrypt hash, NFR.1)</text></g><g class="message" data-entity-1="part3" data-entity-2="part4" id="msg13"><polygon fill="#181818" points="926.8228,586.7227,936.8228,590.7227,926.8228,594.7227,930.8228,590.7227" style="stroke:#181818;stroke-width:1;"/><line style="stroke:#181818;stroke-width:1;" x1="771.7998" x2="932.8228" y1="590.7227" y2="590.7227"/><text fill="#000000" font-family="sans-serif" font-size="13" lengthAdjust="spacing" textLength="126.6421" x="778.7998" y="585.9805">Create driver profile</text></g><path d="M943,556.1016 L943,611.1016 L1138,611.1016 L1138,566.1016 L1128,556.1016 L943,556.1016" fill="#FEFFDD" style="stroke:#181818;stroke-width:0.5;"/><path d="M1128,556.1016 L1128,566.1016 L1138,566.1016 L1128,556.1016" fill="#FEFFDD" style="stroke:#181818;stroke-width:0.5;"/><text fill="#000000" font-family="sans-serif" font-size="13" lengthAdjust="spacing" textLength="142.6064" x="949" y="573.6699">SAGA: if any step fails,</text><text fill="#000000" font-family="sans-serif" font-size="13" lengthAdjust="spacing" textLength="174.5415" x="949" y="588.9805">compensating actions undo</text><text fill="#000000" font-family="sans-serif" font-size="13" lengthAdjust="spacing" textLength="131.7773" x="949" y="604.291">partial records (FR.5)</text><g class="message" data-entity-1="part4" data-entity-2="part3" id="msg15"><polygon fill="#181818" points="782.7998,634.3438,772.7998,638.3438,782.7998,642.3438,778.7998,638.3438" style="stroke:#181818;stroke-width:1;"/><line style="stroke:#181818;stroke-width:1;" x1="776.7998" x2="937.8228" y1="638.3438" y2="638.3438"/><text fill="#000000" font-family="sans-serif" font-size="13" lengthAdjust="spacing" textLength="18.5859" x="788.7998" y="633.6016">OK</text></g><g class="message" data-entity-1="part3" data-entity-2="part2" id="msg16"><polygon fill="#181818" points="446.3706,663.6543,436.3706,667.6543,446.3706,671.6543,442.3706,667.6543" style="stroke:#181818;stroke-width:1;"/><line style="stroke:#181818;stroke-width:1;" x1="440.3706" x2="770.7998" y1="667.6543" y2="667.6543"/><text fill="#000000" font-family="sans-serif" font-size="13" lengthAdjust="spacing" textLength="206.3369" x="452.3706" y="662.9121">Issue JWT (lifetime &lt;=1h, NFR.2)</text></g><line style="stroke:#000000;stroke-width:1;stroke-dasharray:2,2;" x1="10" x2="1164.3643" y1="683.6543" y2="683.6543"/><text fill="#000000" font-family="sans-serif" font-size="11" font-weight="bold" lengthAdjust="spacing" textLength="123.0303" x="15" y="694.2891">[Google OAuth (FR.4)]</text><g class="message" data-entity-1="part1" data-entity-2="part2" id="msg17"><polygon fill="#181818" points="423.3706,714.9199,433.3706,718.9199,423.3706,722.9199,427.3706,718.9199" style="stroke:#181818;stroke-width:1;"/><line style="stroke:#181818;stroke-width:1;" x1="94.0005" x2="429.3706" y1="718.9199" y2="718.9199"/><text fill="#000000" font-family="sans-serif" font-size="13" lengthAdjust="spacing" textLength="159.6816" x="101.0005" y="714.1777">Tap "Sign in with Google"</text></g><g class="message" data-entity-1="part2" data-entity-2="part5" id="msg18"><polygon fill="#181818" points="1018.9531,744.2305,1028.9531,748.2305,1018.9531,752.2305,1022.9531,748.2305" style="stroke:#181818;stroke-width:1;"/><line style="stroke:#181818;stroke-width:1;" x1="435.3706" x2="1024.9531" y1="748.2305" y2="748.2305"/><text fill="#000000" font-family="sans-serif" font-size="13" lengthAdjust="spacing" textLength="70.7192" x="442.3706" y="743.4883">OAuth flow</text></g><g class="message" data-entity-1="part5" data-entity-2="part2" id="msg19"><polygon fill="#181818" points="446.3706,773.541,436.3706,777.541,446.3706,781.541,442.3706,777.541" style="stroke:#181818;stroke-width:1;"/><line style="stroke:#181818;stroke-width:1;" x1="440.3706" x2="1029.9531" y1="777.541" y2="777.541"/><text fill="#000000" font-family="sans-serif" font-size="13" lengthAdjust="spacing" textLength="113.5088" x="452.3706" y="772.7988">ID token + e-mail</text></g><g class="message" data-entity-1="part2" data-entity-2="part3" id="msg20"><polygon fill="#181818" points="759.7998,802.8516,769.7998,806.8516,759.7998,810.8516,763.7998,806.8516" style="stroke:#181818;stroke-width:1;"/><line style="stroke:#181818;stroke-width:1;" x1="435.3706" x2="765.7998" y1="806.8516" y2="806.8516"/><text fill="#000000" font-family="sans-serif" font-size="13" lengthAdjust="spacing" textLength="191.3691" x="442.3706" y="802.1094">Verify ID token, lookup e-mail</text></g><path d="M714.9976,821.8516 L777.1362,821.8516 L777.1362,829.1621 L767.1362,839.1621 L714.9976,839.1621 L714.9976,821.8516" fill="#EEEEEE" style="stroke:#000000;stroke-width:1.5;"/><rect fill="none" height="88.9316" style="stroke:#000000;stroke-width:1.5;" width="285.0093" x="714.9976" y="821.8516"/><text fill="#000000" font-family="sans-serif" font-size="13" font-weight="bold" lengthAdjust="spacing" textLength="17.1387" x="729.9976" y="835.4199">alt</text><text fill="#000000" font-family="sans-serif" font-size="11" font-weight="bold" lengthAdjust="spacing" textLength="72.8589" x="792.1362" y="834.4863">[E-mail new]</text><g class="message" data-entity-1="part3" data-entity-2="part3" id="msg21"><line style="stroke:#181818;stroke-width:1;" x1="771.7998" x2="813.7998" y1="860.4727" y2="860.4727"/><line style="stroke:#181818;stroke-width:1;" x1="813.7998" x2="813.7998" y1="860.4727" y2="873.4727"/><line style="stroke:#181818;stroke-width:1;" x1="772.7998" x2="813.7998" y1="873.4727" y2="873.4727"/><polygon fill="#181818" points="782.7998,869.4727,772.7998,873.4727,782.7998,877.4727,778.7998,873.4727" style="stroke:#181818;stroke-width:1;"/><text fill="#000000" font-family="sans-serif" font-size="13" lengthAdjust="spacing" textLength="153.0229" x="778.7998" y="855.7305">Auto-create auth record</text></g><g class="message" data-entity-1="part3" data-entity-2="part4" id="msg22"><polygon fill="#181818" points="926.8228,898.7832,936.8228,902.7832,926.8228,906.7832,930.8228,902.7832" style="stroke:#181818;stroke-width:1;"/><line style="stroke:#181818;stroke-width:1;" x1="771.7998" x2="932.8228" y1="902.7832" y2="902.7832"/><text fill="#000000" font-family="sans-serif" font-size="13" lengthAdjust="spacing" textLength="126.6421" x="778.7998" y="898.041">Create driver profile</text></g><g class="message" data-entity-1="part3" data-entity-2="part2" id="msg23"><polygon fill="#181818" points="446.3706,935.0938,436.3706,939.0938,446.3706,943.0938,442.3706,939.0938" style="stroke:#181818;stroke-width:1;"/><line style="stroke:#181818;stroke-width:1;" x1="440.3706" x2="770.7998" y1="939.0938" y2="939.0938"/><text fill="#000000" font-family="sans-serif" font-size="13" lengthAdjust="spacing" textLength="109.5034" x="452.3706" y="934.3516">Issue JWT (NFR.2)</text></g><g class="message" data-entity-1="part2" data-entity-2="part1" id="msg24"><polygon fill="#181818" points="105.0005,971.4043,95.0005,975.4043,105.0005,979.4043,101.0005,975.4043" style="stroke:#181818;stroke-width:1;"/><line style="stroke:#181818;stroke-width:1;" x1="99.0005" x2="434.3706" y1="975.4043" y2="975.4043"/><text fill="#000000" font-family="sans-serif" font-size="13" lengthAdjust="spacing" textLength="194.5874" x="111.0005" y="970.6621">Navigate to onboarding wizard</text></g><g class="message" data-entity-1="part1" data-entity-2="part2" id="msg25"><polygon fill="#181818" points="423.3706,1000.7148,433.3706,1004.7148,423.3706,1008.7148,427.3706,1004.7148" style="stroke:#181818;stroke-width:1;"/><line style="stroke:#181818;stroke-width:1;" x1="94.0005" x2="429.3706" y1="1004.7148" y2="1004.7148"/><text fill="#000000" font-family="sans-serif" font-size="13" lengthAdjust="spacing" textLength="317.3701" x="101.0005" y="999.9727">Enter vehicle info (make, model, year, plate) (FR.6)</text></g><g class="message" data-entity-1="part2" data-entity-2="part4" id="msg26"><polygon fill="#181818" points="926.8228,1030.0254,936.8228,1034.0254,926.8228,1038.0254,930.8228,1034.0254" style="stroke:#181818;stroke-width:1;"/><line style="stroke:#181818;stroke-width:1;" x1="435.3706" x2="932.8228" y1="1034.0254" y2="1034.0254"/><text fill="#000000" font-family="sans-serif" font-size="13" lengthAdjust="spacing" textLength="104.4253" x="442.3706" y="1029.2832">Save vehicle info</text></g><g class="message" data-entity-1="part4" data-entity-2="part2" id="msg27"><polygon fill="#181818" points="446.3706,1059.3359,436.3706,1063.3359,446.3706,1067.3359,442.3706,1063.3359" style="stroke:#181818;stroke-width:1;"/><line style="stroke:#181818;stroke-width:1;" x1="440.3706" x2="937.8228" y1="1063.3359" y2="1063.3359"/><text fill="#000000" font-family="sans-serif" font-size="13" lengthAdjust="spacing" textLength="18.5859" x="452.3706" y="1058.5938">OK</text></g><g class="message" data-entity-1="part2" data-entity-2="part1" id="msg28"><polygon fill="#181818" points="105.0005,1088.6465,95.0005,1092.6465,105.0005,1096.6465,101.0005,1092.6465" style="stroke:#181818;stroke-width:1;"/><line style="stroke:#181818;stroke-width:1;" x1="99.0005" x2="434.3706" y1="1092.6465" y2="1092.6465"/><text fill="#000000" font-family="sans-serif" font-size="13" lengthAdjust="spacing" textLength="197.1011" x="111.0005" y="1087.9043">Navigate to driver home screen</text></g><?plantuml-src fLNRRjD047ttLupy58iKqGfuY02ffANSr2BIbEUjFRP7MU-QtRL3-7h6QoU-f458H4haR6REd3bpPYDYfms4QsKm8-lGO09hYoO4OVr343IVSFOEBiiI5d0lIWXNb2bObo5e1LkKiIuGR6mGLT14SR1FMi0grrimMYAK56_uQFRX-_FpQ8AvGecnW_3AKCsbWq181z-4jLjj4cYP6U58gm3uzKI9n6UEGY7Lfl3nasBLOq4EPaeKE0SyAmJ9EPHTjMXOeKru498IuT032iviSy3kb1E_-bJWogWobqU11scQ-AJg9Xj8bPNpfySDVAGib_ns7DL6fuGoiOnii4Rbm3QKhTttZoe9HZGhbw_Gr1GZmorpZ3TTNr0f-bcXGckzyXS3QjTjX906HRA3VluzpG7kGOsbLgca-5GpVXhX19iKL1P3U0PVTSQQW2IrWTbwUVwYrHkbnJsXb6tqTmftNwR59mfmLHwNu4DkAsv6Ctk_DBlIGIviFeVRreGdYhGkF8BhB5OQdPBi6IhDlvbcV8UZvhMwlBbS0AKWr8wDWIMat9oTZu9uRqfKbksgCX1nurhB8qlqAAeKnf6GNIlj85_rxDaDdiJXOCp_I9sXUa-f-ydQ2k7pZtkOIKhH4U_scxVddMmNKMz1FxKRhJDUxxi6orDx6JsnTFsjmLxO4eUsUU7GnntKeWDBfTxwdxlpdk4LEBr1nNvgRNvw6HxGKBexPCn1Qhsfoc7UO1SKRazgCuBbR_eiFhBP_pkgqVLV9jEDmezXl82tegQiGNUQR-T7BKpIk6jBl_bfSkzUArvug36dcFKbbMgO5MB3rsAX4-HRSOV2y3Ka6I_omtqTxSjDUrg96aTGmR4Fzzjxcd4dIJxuG_a3?></g></svg>