<svg xmlns="http://www.w3.org/2000/svg" xmlns:xlink="http://www.w3.org/1999/xlink" contentStyleType="text/css" height="371px" preserveAspectRatio="none" style="width:459px;height:371px;background:#FFFFFF;" version="1.1" viewBox="0 0 459 371" width="459px" zoomAndPan="magnify"><defs/><g><line style="stroke:#181818;stroke-width:0.5;stroke-dasharray:5.0,5.0;" x1="41" x2="41" y1="81.4883" y2="290.3516"/><line style="stroke:#181818;stroke-width:0.5;stroke-dasharray:5.0,5.0;" x1="279.2007" x2="279.2007" y1="81.4883" y2="290.3516"/><text fill="#000000" font-family="sans-serif" font-size="14" lengthAdjust="spacing" textLength="67.0264" x="5" y="78.5352">CarOwner</text><ellipse cx="41.5132" cy="13.5" fill="#E2E2F0" rx="8" ry="8" style="stroke:#181818;stroke-width:0.5;"/><path d="M41.5132,21.5 L41.5132,48.5 M28.5132,29.5 L54.5132,29.5 M41.5132,48.5 L28.5132,63.5 M41.5132,48.5 L54.5132,63.5 " fill="none" style="stroke:#181818;stroke-width:0.5;"/><text fill="#000000" font-family="sans-serif" font-size="14" lengthAdjust="spacing" textLength="67.0264" x="5" y="302.8867">CarOwner</text><ellipse cx="41.5132" cy="314.3398" fill="#E2E2F0" rx="8" ry="8" style="stroke:#181818;stroke-width:0.5;"/><path d="M41.5132,322.3398 L41.5132,349.3398 M28.5132,330.3398 L54.5132,330.3398 M41.5132,349.3398 L28.5132,364.3398 M41.5132,349.3398 L54.5132,364.3398 " fill="none" style="stroke:#181818;stroke-width:0.5;"/><rect fill="#E2E2F0" height="30.4883" rx="2.5" ry="2.5" style="stroke:#181818;stroke-width:0.5;" width="41.2822" x="259.2007" y="50"/><text fill="#000000" font-family="sans-serif" font-size="14" lengthAdjust="spacing" textLength="27.2822" x="266.2007" y="70.5352">App</text><rect fill="#E2E2F0" height="30.4883" rx="2.5" ry="2.5" style="stroke:#181818;stroke-width:0.5;" width="41.2822" x="259.2007" y="289.3516"/><text fill="#000000" font-family="sans-serif" font-size="14" lengthAdjust="spacing" textLength="27.2822" x="266.2007" y="309.8867">App</text><polygon fill="#181818" points="267.8418,108.7988,277.8418,112.7988,267.8418,116.7988,271.8418,112.7988" style="stroke:#181818;stroke-width:1.0;"/><line style="stroke:#181818;stroke-width:1.0;" x1="41.5132" x2="273.8418" y1="112.7988" y2="112.7988"/><text fill="#000000" font-family="sans-serif" font-size="13" lengthAdjust="spacing" textLength="120.269" x="48.5132" y="108.0566">Open Home Screen</text><polygon fill="#181818" points="52.5132,138.1094,42.5132,142.1094,52.5132,146.1094,48.5132,142.1094" style="stroke:#181818;stroke-width:1.0;"/><line style="stroke:#181818;stroke-width:1.0;" x1="46.5132" x2="278.8418" y1="142.1094" y2="142.1094"/><text fill="#000000" font-family="sans-serif" font-size="13" lengthAdjust="spacing" textLength="214.3286" x="58.5132" y="137.3672">Display active campaign summary</text><polygon fill="#181818" points="267.8418,167.4199,277.8418,171.4199,267.8418,175.4199,271.8418,171.4199" style="stroke:#181818;stroke-width:1.0;"/><line style="stroke:#181818;stroke-width:1.0;" x1="41.5132" x2="273.8418" y1="171.4199" y2="171.4199"/><text fill="#000000" font-family="sans-serif" font-size="13" lengthAdjust="spacing" textLength="202.9536" x="48.5132" y="166.6777">Tap on campaign summary card</text><line style="stroke:#181818;stroke-width:1.0;" x1="279.8418" x2="321.8418" y1="200.7305" y2="200.7305"/><line style="stroke:#181818;stroke-width:1.0;" x1="321.8418" x2="321.8418" y1="200.7305" y2="213.7305"/><line style="stroke:#181818;stroke-width:1.0;" x1="280.8418" x2="321.8418" y1="213.7305" y2="213.7305"/><polygon fill="#181818" points="290.8418,209.7305,280.8418,213.7305,290.8418,217.7305,286.8418,213.7305" style="stroke:#181818;stroke-width:1.0;"/><text fill="#000000" font-family="sans-serif" font-size="13" lengthAdjust="spacing" textLength="165.8579" x="286.8418" y="195.9883">Load full campaign details</text><polygon fill="#181818" points="52.5132,239.041,42.5132,243.041,52.5132,247.041,48.5132,243.041" style="stroke:#181818;stroke-width:1.0;"/><line style="stroke:#181818;stroke-width:1.0;" x1="46.5132" x2="278.8418" y1="243.041" y2="243.041"/><text fill="#000000" font-family="sans-serif" font-size="13" lengthAdjust="spacing" textLength="144.1743" x="58.5132" y="238.2988">Show campaign details</text><polygon fill="#181818" points="267.8418,268.3516,277.8418,272.3516,267.8418,276.3516,271.8418,272.3516" style="stroke:#181818;stroke-width:1.0;"/><line style="stroke:#181818;stroke-width:1.0;" x1="41.5132" x2="273.8418" y1="272.3516" y2="272.3516"/><text fill="#000000" font-family="sans-serif" font-size="13" lengthAdjust="spacing" textLength="105.5615" x="48.5132" y="267.6094">Close detail view</text><!--SRC=[RSuz3i8m30NWFQTu5-027P1G6HYGEfGBM8c1IFcJapRgxIc2mj1irlCd-v4kKT2J33MmABLDE1nnIWaTXiG1b-WPenRceDxnklt93cURawC5f8kT6Pfy8li8o9Ft94lhweqIOjZHDH2pVVZ8QoI3- -JS7nikP5rMZIhZCzO6t1VeNSpy1PWjL_K2]--></g></svg>