<svg xmlns="http://www.w3.org/2000/svg" xmlns:xlink="http://www.w3.org/1999/xlink" contentStyleType="text/css" height="498px" preserveAspectRatio="none" style="width:561px;height:498px;background:#FFFFFF;" version="1.1" viewBox="0 0 561 498" width="561px" zoomAndPan="magnify"><defs/><g><line style="stroke:#181818;stroke-width:0.5;stroke-dasharray:5.0,5.0;" x1="41" x2="41" y1="81.4883" y2="417.2832"/><line style="stroke:#181818;stroke-width:0.5;stroke-dasharray:5.0,5.0;" x1="311.3896" x2="311.3896" y1="81.4883" y2="417.2832"/><text fill="#000000" font-family="sans-serif" font-size="14" lengthAdjust="spacing" textLength="67.0264" x="5" y="78.5352">CarOwner</text><ellipse cx="41.5132" cy="13.5" fill="#E2E2F0" rx="8" ry="8" style="stroke:#181818;stroke-width:0.5;"/><path d="M41.5132,21.5 L41.5132,48.5 M28.5132,29.5 L54.5132,29.5 M41.5132,48.5 L28.5132,63.5 M41.5132,48.5 L54.5132,63.5 " fill="none" style="stroke:#181818;stroke-width:0.5;"/><text fill="#000000" font-family="sans-serif" font-size="14" lengthAdjust="spacing" textLength="67.0264" x="5" y="429.8184">CarOwner</text><ellipse cx="41.5132" cy="441.2715" fill="#E2E2F0" rx="8" ry="8" style="stroke:#181818;stroke-width:0.5;"/><path d="M41.5132,449.2715 L41.5132,476.2715 M28.5132,457.2715 L54.5132,457.2715 M41.5132,476.2715 L28.5132,491.2715 M41.5132,476.2715 L54.5132,491.2715 " fill="none" style="stroke:#181818;stroke-width:0.5;"/><rect fill="#E2E2F0" height="30.4883" rx="2.5" ry="2.5" style="stroke:#181818;stroke-width:0.5;" width="41.2822" x="291.3896" y="50"/><text fill="#000000" font-family="sans-serif" font-size="14" lengthAdjust="spacing" textLength="27.2822" x="298.3896" y="70.5352">App</text><rect fill="#E2E2F0" height="30.4883" rx="2.5" ry="2.5" style="stroke:#181818;stroke-width:0.5;" width="41.2822" x="291.3896" y="416.2832"/><text fill="#000000" font-family="sans-serif" font-size="14" lengthAdjust="spacing" textLength="27.2822" x="298.3896" y="436.8184">App</text><polygon fill="#181818" points="300.0308,108.7988,310.0308,112.7988,300.0308,116.7988,304.0308,112.7988" style="stroke:#181818;stroke-width:1.0;"/><line style="stroke:#181818;stroke-width:1.0;" x1="41.5132" x2="306.0308" y1="112.7988" y2="112.7988"/><text fill="#000000" font-family="sans-serif" font-size="13" lengthAdjust="spacing" textLength="82.5068" x="48.5132" y="108.0566">Tap End Ride</text><line style="stroke:#181818;stroke-width:1.0;" x1="312.0308" x2="354.0308" y1="142.1094" y2="142.1094"/><line style="stroke:#181818;stroke-width:1.0;" x1="354.0308" x2="354.0308" y1="142.1094" y2="155.1094"/><line style="stroke:#181818;stroke-width:1.0;" x1="313.0308" x2="354.0308" y1="155.1094" y2="155.1094"/><polygon fill="#181818" points="323.0308,151.1094,313.0308,155.1094,323.0308,159.1094,319.0308,155.1094" style="stroke:#181818;stroke-width:1.0;"/><text fill="#000000" font-family="sans-serif" font-size="13" lengthAdjust="spacing" textLength="120.6816" x="319.0308" y="137.3672">Launch QR scanner</text><polygon fill="#181818" points="300.0308,180.4199,310.0308,184.4199,300.0308,188.4199,304.0308,184.4199" style="stroke:#181818;stroke-width:1.0;"/><line style="stroke:#181818;stroke-width:1.0;" x1="41.5132" x2="306.0308" y1="184.4199" y2="184.4199"/><text fill="#000000" font-family="sans-serif" font-size="13" lengthAdjust="spacing" textLength="123.7158" x="48.5132" y="179.6777">Scan QR at ride end</text><line style="stroke:#181818;stroke-width:1.0;" x1="312.0308" x2="354.0308" y1="213.7305" y2="213.7305"/><line style="stroke:#181818;stroke-width:1.0;" x1="354.0308" x2="354.0308" y1="213.7305" y2="226.7305"/><line style="stroke:#181818;stroke-width:1.0;" x1="313.0308" x2="354.0308" y1="226.7305" y2="226.7305"/><polygon fill="#181818" points="323.0308,222.7305,313.0308,226.7305,323.0308,230.7305,319.0308,226.7305" style="stroke:#181818;stroke-width:1.0;"/><text fill="#000000" font-family="sans-serif" font-size="13" lengthAdjust="spacing" textLength="159.4087" x="319.0308" y="208.9883">Detect missing start scan</text><polygon fill="#181818" points="52.5132,252.041,42.5132,256.041,52.5132,260.041,48.5132,256.041" style="stroke:#181818;stroke-width:1.0;"/><line style="stroke:#181818;stroke-width:1.0;" x1="46.5132" x2="311.0308" y1="256.041" y2="256.041"/><text fill="#000000" font-family="sans-serif" font-size="13" lengthAdjust="spacing" textLength="246.5176" x="58.5132" y="251.2988">Prompt &#8220;Use background GPS as start?&#8221;</text><polygon fill="#181818" points="300.0308,281.3516,310.0308,285.3516,300.0308,289.3516,304.0308,285.3516" style="stroke:#181818;stroke-width:1.0;"/><line style="stroke:#181818;stroke-width:1.0;" x1="41.5132" x2="306.0308" y1="285.3516" y2="285.3516"/><text fill="#000000" font-family="sans-serif" font-size="13" lengthAdjust="spacing" textLength="141.6289" x="48.5132" y="280.6094">Confirm deferred start</text><line style="stroke:#181818;stroke-width:1.0;" x1="312.0308" x2="354.0308" y1="314.6621" y2="314.6621"/><line style="stroke:#181818;stroke-width:1.0;" x1="354.0308" x2="354.0308" y1="314.6621" y2="327.6621"/><line style="stroke:#181818;stroke-width:1.0;" x1="313.0308" x2="354.0308" y1="327.6621" y2="327.6621"/><polygon fill="#181818" points="323.0308,323.6621,313.0308,327.6621,323.0308,331.6621,319.0308,327.6621" style="stroke:#181818;stroke-width:1.0;"/><text fill="#000000" font-family="sans-serif" font-size="13" lengthAdjust="spacing" textLength="234.9712" x="319.0308" y="309.9199">Compute distance/time from GPS log</text><line style="stroke:#181818;stroke-width:1.0;" x1="312.0308" x2="354.0308" y1="356.9727" y2="356.9727"/><line style="stroke:#181818;stroke-width:1.0;" x1="354.0308" x2="354.0308" y1="356.9727" y2="369.9727"/><line style="stroke:#181818;stroke-width:1.0;" x1="313.0308" x2="354.0308" y1="369.9727" y2="369.9727"/><polygon fill="#181818" points="323.0308,365.9727,313.0308,369.9727,323.0308,373.9727,319.0308,369.9727" style="stroke:#181818;stroke-width:1.0;"/><text fill="#000000" font-family="sans-serif" font-size="13" lengthAdjust="spacing" textLength="146.9165" x="319.0308" y="352.2305">Log ride &amp; update stats</text><polygon fill="#181818" points="52.5132,395.2832,42.5132,399.2832,52.5132,403.2832,48.5132,399.2832" style="stroke:#181818;stroke-width:1.0;"/><line style="stroke:#181818;stroke-width:1.0;" x1="46.5132" x2="311.0308" y1="399.2832" y2="399.2832"/><text fill="#000000" font-family="sans-serif" font-size="13" lengthAdjust="spacing" textLength="124.0586" x="58.5132" y="394.541">Show ride summary</text><!--SRC=[RP0zJWCn48NxFSMhw11z2X1Q40qI8KiECDYp6uluH-En8heS9BbSJX9lLeaKI3UQzxutpoQZKT2IV6m2IzES9zm_uZabpF152Q_1Ok4iD-FgehnJ2MQ5pmMoeJ3Y_-ckAgE35583mC5UXxomib5ubxCB0xAIw2dlRBjapZ2Nw9FYiDqjC-ERpCyWiTHkR_CEb2VuwR3TuqQJDeRUYOVbdaNOJkxhCctDBygmheh1y8Cwp-ZhsTE9THp-_40SfcVTeIHBbQoSvXlLkrNSJDPSl2VvROu0]--></g></svg>