<svg xmlns="http://www.w3.org/2000/svg" xmlns:xlink="http://www.w3.org/1999/xlink" contentStyleType="text/css" height="754px" preserveAspectRatio="none" style="width:748px;height:754px;background:#FFFFFF;" version="1.1" viewBox="0 0 748 754" width="748px" zoomAndPan="magnify"><defs/><g><line style="stroke:#181818;stroke-width:0.5;stroke-dasharray:5.0,5.0;" x1="41" x2="41" y1="81.4883" y2="335.6621"/><line style="stroke:#A80036;stroke-width:1.0;stroke-dasharray:1.0,4.0;" x1="41" x2="41" y1="335.6621" y2="376.6172"/><line style="stroke:#181818;stroke-width:0.5;stroke-dasharray:5.0,5.0;" x1="41" x2="41" y1="376.6172" y2="673.1016"/><line style="stroke:#181818;stroke-width:0.5;stroke-dasharray:5.0,5.0;" x1="318.9116" x2="318.9116" y1="81.4883" y2="335.6621"/><line style="stroke:#A80036;stroke-width:1.0;stroke-dasharray:1.0,4.0;" x1="318.9116" x2="318.9116" y1="335.6621" y2="376.6172"/><line style="stroke:#181818;stroke-width:0.5;stroke-dasharray:5.0,5.0;" x1="318.9116" x2="318.9116" y1="376.6172" y2="673.1016"/><text fill="#000000" font-family="sans-serif" font-size="14" lengthAdjust="spacing" textLength="67.0264" x="5" y="78.5352">CarOwner</text><ellipse cx="41.5132" cy="13.5" fill="#E2E2F0" rx="8" ry="8" style="stroke:#181818;stroke-width:0.5;"/><path d="M41.5132,21.5 L41.5132,48.5 M28.5132,29.5 L54.5132,29.5 M41.5132,48.5 L28.5132,63.5 M41.5132,48.5 L54.5132,63.5 " fill="none" style="stroke:#181818;stroke-width:0.5;"/><text fill="#000000" font-family="sans-serif" font-size="14" lengthAdjust="spacing" textLength="67.0264" x="5" y="685.6367">CarOwner</text><ellipse cx="41.5132" cy="697.0898" fill="#E2E2F0" rx="8" ry="8" style="stroke:#181818;stroke-width:0.5;"/><path d="M41.5132,705.0898 L41.5132,732.0898 M28.5132,713.0898 L54.5132,713.0898 M41.5132,732.0898 L28.5132,747.0898 M41.5132,732.0898 L54.5132,747.0898 " fill="none" style="stroke:#181818;stroke-width:0.5;"/><rect fill="#E2E2F0" height="30.4883" rx="2.5" ry="2.5" style="stroke:#181818;stroke-width:0.5;" width="41.2822" x="298.9116" y="50"/><text fill="#000000" font-family="sans-serif" font-size="14" lengthAdjust="spacing" textLength="27.2822" x="305.9116" y="70.5352">App</text><rect fill="#E2E2F0" height="30.4883" rx="2.5" ry="2.5" style="stroke:#181818;stroke-width:0.5;" width="41.2822" x="298.9116" y="672.1016"/><text fill="#000000" font-family="sans-serif" font-size="14" lengthAdjust="spacing" textLength="27.2822" x="305.9116" y="692.6367">App</text><polygon fill="#181818" points="307.5527,108.7988,317.5527,112.7988,307.5527,116.7988,311.5527,112.7988" style="stroke:#181818;stroke-width:1.0;"/><line style="stroke:#181818;stroke-width:1.0;" x1="41.5132" x2="313.5527" y1="112.7988" y2="112.7988"/><text fill="#000000" font-family="sans-serif" font-size="13" lengthAdjust="spacing" textLength="120.269" x="48.5132" y="108.0566">Open Home Screen</text><polygon fill="#181818" points="52.5132,138.1094,42.5132,142.1094,52.5132,146.1094,48.5132,142.1094" style="stroke:#181818;stroke-width:1.0;"/><line style="stroke:#181818;stroke-width:1.0;" x1="46.5132" x2="318.5527" y1="142.1094" y2="142.1094"/><text fill="#000000" font-family="sans-serif" font-size="13" lengthAdjust="spacing" textLength="209.4536" x="58.5132" y="137.3672">Show possibility to start new ride</text><polygon fill="#181818" points="307.5527,167.4199,317.5527,171.4199,307.5527,175.4199,311.5527,171.4199" style="stroke:#181818;stroke-width:1.0;"/><line style="stroke:#181818;stroke-width:1.0;" x1="41.5132" x2="313.5527" y1="171.4199" y2="171.4199"/><text fill="#000000" font-family="sans-serif" font-size="13" lengthAdjust="spacing" textLength="136.4746" x="48.5132" y="166.6777">Navigate to Start Ride</text><line style="stroke:#181818;stroke-width:1.0;" x1="319.5527" x2="361.5527" y1="200.7305" y2="200.7305"/><line style="stroke:#181818;stroke-width:1.0;" x1="361.5527" x2="361.5527" y1="200.7305" y2="213.7305"/><line style="stroke:#181818;stroke-width:1.0;" x1="320.5527" x2="361.5527" y1="213.7305" y2="213.7305"/><polygon fill="#181818" points="330.5527,209.7305,320.5527,213.7305,330.5527,217.7305,326.5527,213.7305" style="stroke:#181818;stroke-width:1.0;"/><text fill="#000000" font-family="sans-serif" font-size="13" lengthAdjust="spacing" textLength="144.5298" x="326.5527" y="195.9883">Redirect to QR Scanner</text><polygon fill="#181818" points="307.5527,239.041,317.5527,243.041,307.5527,247.041,311.5527,243.041" style="stroke:#181818;stroke-width:1.0;"/><line style="stroke:#181818;stroke-width:1.0;" x1="41.5132" x2="313.5527" y1="243.041" y2="243.041"/><text fill="#000000" font-family="sans-serif" font-size="13" lengthAdjust="spacing" textLength="129.6509" x="48.5132" y="238.2988">Scan QR Code (Start)</text><line style="stroke:#181818;stroke-width:1.0;" x1="319.5527" x2="361.5527" y1="272.3516" y2="272.3516"/><line style="stroke:#181818;stroke-width:1.0;" x1="361.5527" x2="361.5527" y1="272.3516" y2="285.3516"/><line style="stroke:#181818;stroke-width:1.0;" x1="320.5527" x2="361.5527" y1="285.3516" y2="285.3516"/><polygon fill="#181818" points="330.5527,281.3516,320.5527,285.3516,330.5527,289.3516,326.5527,285.3516" style="stroke:#181818;stroke-width:1.0;"/><text fill="#000000" font-family="sans-serif" font-size="13" lengthAdjust="spacing" textLength="128.0449" x="326.5527" y="267.6094">Confirm ride started</text><line style="stroke:#181818;stroke-width:1.0;" x1="319.5527" x2="361.5527" y1="314.6621" y2="314.6621"/><line style="stroke:#181818;stroke-width:1.0;" x1="361.5527" x2="361.5527" y1="314.6621" y2="327.6621"/><line style="stroke:#181818;stroke-width:1.0;" x1="320.5527" x2="361.5527" y1="327.6621" y2="327.6621"/><polygon fill="#181818" points="330.5527,323.6621,320.5527,327.6621,330.5527,331.6621,326.5527,327.6621" style="stroke:#181818;stroke-width:1.0;"/><text fill="#000000" font-family="sans-serif" font-size="13" lengthAdjust="spacing" textLength="191.6865" x="326.5527" y="309.9199">Begin tracking (time, distance)</text><text fill="#000000" font-family="sans-serif" font-size="11" lengthAdjust="spacing" textLength="126.4355" x="117.3152" y="360.2969">After some time driving</text><polygon fill="#181818" points="307.5527,393.9277,317.5527,397.9277,307.5527,401.9277,311.5527,397.9277" style="stroke:#181818;stroke-width:1.0;"/><line style="stroke:#181818;stroke-width:1.0;" x1="41.5132" x2="313.5527" y1="397.9277" y2="397.9277"/><text fill="#000000" font-family="sans-serif" font-size="13" lengthAdjust="spacing" textLength="99.6519" x="48.5132" y="393.1855">Open app again</text><polygon fill="#181818" points="307.5527,423.2383,317.5527,427.2383,307.5527,431.2383,311.5527,427.2383" style="stroke:#181818;stroke-width:1.0;"/><line style="stroke:#181818;stroke-width:1.0;" x1="41.5132" x2="313.5527" y1="427.2383" y2="427.2383"/><text fill="#000000" font-family="sans-serif" font-size="13" lengthAdjust="spacing" textLength="92.2188" x="48.5132" y="422.4961">Tap "End Ride"</text><line style="stroke:#181818;stroke-width:1.0;" x1="319.5527" x2="361.5527" y1="456.5488" y2="456.5488"/><line style="stroke:#181818;stroke-width:1.0;" x1="361.5527" x2="361.5527" y1="456.5488" y2="469.5488"/><line style="stroke:#181818;stroke-width:1.0;" x1="320.5527" x2="361.5527" y1="469.5488" y2="469.5488"/><polygon fill="#181818" points="330.5527,465.5488,320.5527,469.5488,330.5527,473.5488,326.5527,469.5488" style="stroke:#181818;stroke-width:1.0;"/><text fill="#000000" font-family="sans-serif" font-size="13" lengthAdjust="spacing" textLength="144.5298" x="326.5527" y="451.8066">Redirect to QR Scanner</text><polygon fill="#181818" points="307.5527,494.8594,317.5527,498.8594,307.5527,502.8594,311.5527,498.8594" style="stroke:#181818;stroke-width:1.0;"/><line style="stroke:#181818;stroke-width:1.0;" x1="41.5132" x2="313.5527" y1="498.8594" y2="498.8594"/><text fill="#000000" font-family="sans-serif" font-size="13" lengthAdjust="spacing" textLength="123.7222" x="48.5132" y="494.1172">Scan QR Code (End)</text><line style="stroke:#181818;stroke-width:1.0;" x1="319.5527" x2="361.5527" y1="528.1699" y2="528.1699"/><line style="stroke:#181818;stroke-width:1.0;" x1="361.5527" x2="361.5527" y1="528.1699" y2="541.1699"/><line style="stroke:#181818;stroke-width:1.0;" x1="320.5527" x2="361.5527" y1="541.1699" y2="541.1699"/><polygon fill="#181818" points="330.5527,537.1699,320.5527,541.1699,330.5527,545.1699,326.5527,541.1699" style="stroke:#181818;stroke-width:1.0;"/><text fill="#000000" font-family="sans-serif" font-size="13" lengthAdjust="spacing" textLength="415.0352" x="326.5527" y="523.4277">Calculate time + distance + calculate estimated reach and update</text><line style="stroke:#181818;stroke-width:1.0;" x1="319.5527" x2="361.5527" y1="570.4805" y2="570.4805"/><line style="stroke:#181818;stroke-width:1.0;" x1="361.5527" x2="361.5527" y1="570.4805" y2="583.4805"/><line style="stroke:#181818;stroke-width:1.0;" x1="320.5527" x2="361.5527" y1="583.4805" y2="583.4805"/><polygon fill="#181818" points="330.5527,579.4805,320.5527,583.4805,330.5527,587.4805,326.5527,583.4805" style="stroke:#181818;stroke-width:1.0;"/><text fill="#000000" font-family="sans-serif" font-size="13" lengthAdjust="spacing" textLength="129.3462" x="326.5527" y="565.7383">Log ride to database</text><line style="stroke:#181818;stroke-width:1.0;" x1="319.5527" x2="361.5527" y1="612.791" y2="612.791"/><line style="stroke:#181818;stroke-width:1.0;" x1="361.5527" x2="361.5527" y1="612.791" y2="625.791"/><line style="stroke:#181818;stroke-width:1.0;" x1="320.5527" x2="361.5527" y1="625.791" y2="625.791"/><polygon fill="#181818" points="330.5527,621.791,320.5527,625.791,330.5527,629.791,326.5527,625.791" style="stroke:#181818;stroke-width:1.0;"/><text fill="#000000" font-family="sans-serif" font-size="13" lengthAdjust="spacing" textLength="239.2051" x="326.5527" y="608.0488">Update campaign stats (km, earnings)</text><polygon fill="#181818" points="52.5132,651.1016,42.5132,655.1016,52.5132,659.1016,48.5132,655.1016" style="stroke:#181818;stroke-width:1.0;"/><line style="stroke:#181818;stroke-width:1.0;" x1="46.5132" x2="318.5527" y1="655.1016" y2="655.1016"/><text fill="#000000" font-family="sans-serif" font-size="13" lengthAdjust="spacing" textLength="254.0396" x="58.5132" y="650.3594">Show ride summary + updated progress</text><!--SRC=[hP9DRW8n38NtSmgB5QYK0x2eH54b5bLHeJs0IKom83zo0eZRrvbfHmB1hZihxvkNvpT1KwB076Lv3YJDtm3FBp1B2QQmJ1HW4Jt1sWXHQEgngZqvXVKkdY75d7d31ouNA15oGIaGw0p2bkxuVk297HQgyBg5LnNyTU-O5LaMCgKodoiDWA66lEDMfOhCeoKOjdwZQwzv35iMtyRfqf6z9bx9SO0YQFOS70mBUng3POM3eL7JJ2OJc6sBtfjh7rK7Atogj6hDe_PGHtJ8uGxmXGa6Ry6ssm_-PtsrkrqU3-PuQDkkeP_whNGqlKPPLHqi2A7P0MgiOx9wSkts7brNe-PI5JUORuZlzYkrzWdPXTftoJ3S-p4GIj32ilRvu2LrV-ZeFSf5ytK9B2I9JYZd7m00]--></g></svg>