<svg xmlns="http://www.w3.org/2000/svg" xmlns:xlink="http://www.w3.org/1999/xlink" contentStyleType="text/css" height="636px" preserveAspectRatio="none" style="width:740px;height:636px;background:#FFFFFF;" version="1.1" viewBox="0 0 740 636" width="740px" zoomAndPan="magnify"><defs/><g><rect fill="none" height="162.5078" style="stroke:#000000;stroke-width:1.5;" width="699.75" x="10" y="199.4199"/><rect fill="none" height="90.8867" style="stroke:#000000;stroke-width:1.5;" width="499.9888" x="10" y="447.5488"/><line style="stroke:#181818;stroke-width:0.5;stroke-dasharray:5.0,5.0;" x1="70" x2="70" y1="81.4883" y2="555.4355"/><line style="stroke:#181818;stroke-width:0.5;stroke-dasharray:5.0,5.0;" x1="478.7065" x2="478.7065" y1="81.4883" y2="555.4355"/><text fill="#000000" font-family="sans-serif" font-size="14" lengthAdjust="spacing" textLength="94.2676" x="20" y="78.5352">CompanyUser</text><ellipse cx="70.1338" cy="13.5" fill="#E2E2F0" rx="8" ry="8" style="stroke:#181818;stroke-width:0.5;"/><path d="M70.1338,21.5 L70.1338,48.5 M57.1338,29.5 L83.1338,29.5 M70.1338,48.5 L57.1338,63.5 M70.1338,48.5 L83.1338,63.5 " fill="none" style="stroke:#181818;stroke-width:0.5;"/><text fill="#000000" font-family="sans-serif" font-size="14" lengthAdjust="spacing" textLength="94.2676" x="20" y="567.9707">CompanyUser</text><ellipse cx="70.1338" cy="579.4238" fill="#E2E2F0" rx="8" ry="8" style="stroke:#181818;stroke-width:0.5;"/><path d="M70.1338,587.4238 L70.1338,614.4238 M57.1338,595.4238 L83.1338,595.4238 M70.1338,614.4238 L57.1338,629.4238 M70.1338,614.4238 L83.1338,629.4238 " fill="none" style="stroke:#181818;stroke-width:0.5;"/><rect fill="#E2E2F0" height="30.4883" rx="2.5" ry="2.5" style="stroke:#181818;stroke-width:0.5;" width="41.2822" x="458.7065" y="50"/><text fill="#000000" font-family="sans-serif" font-size="14" lengthAdjust="spacing" textLength="27.2822" x="465.7065" y="70.5352">App</text><rect fill="#E2E2F0" height="30.4883" rx="2.5" ry="2.5" style="stroke:#181818;stroke-width:0.5;" width="41.2822" x="458.7065" y="554.4355"/><text fill="#000000" font-family="sans-serif" font-size="14" lengthAdjust="spacing" textLength="27.2822" x="465.7065" y="574.9707">App</text><polygon fill="#181818" points="467.3477,108.7988,477.3477,112.7988,467.3477,116.7988,471.3477,112.7988" style="stroke:#181818;stroke-width:1.0;"/><line style="stroke:#181818;stroke-width:1.0;" x1="70.1338" x2="473.3477" y1="112.7988" y2="112.7988"/><text fill="#000000" font-family="sans-serif" font-size="13" lengthAdjust="spacing" textLength="150.8013" x="77.1338" y="108.0566">Navigate to "Stats" page</text><line style="stroke:#181818;stroke-width:1.0;" x1="479.3477" x2="521.3477" y1="142.1094" y2="142.1094"/><line style="stroke:#181818;stroke-width:1.0;" x1="521.3477" x2="521.3477" y1="142.1094" y2="155.1094"/><line style="stroke:#181818;stroke-width:1.0;" x1="480.3477" x2="521.3477" y1="155.1094" y2="155.1094"/><polygon fill="#181818" points="490.3477,151.1094,480.3477,155.1094,490.3477,159.1094,486.3477,155.1094" style="stroke:#181818;stroke-width:1.0;"/><text fill="#000000" font-family="sans-serif" font-size="13" lengthAdjust="spacing" textLength="247.0127" x="486.3477" y="137.3672">Retrieve overall stats and campaign list</text><polygon fill="#181818" points="81.1338,180.4199,71.1338,184.4199,81.1338,188.4199,77.1338,184.4199" style="stroke:#181818;stroke-width:1.0;"/><line style="stroke:#181818;stroke-width:1.0;" x1="75.1338" x2="478.3477" y1="184.4199" y2="184.4199"/><text fill="#000000" font-family="sans-serif" font-size="13" lengthAdjust="spacing" textLength="261.7964" x="87.1338" y="179.6777">Display stats and campaign selection box</text><path d="M10,199.4199 L72.1387,199.4199 L72.1387,206.7305 L62.1387,216.7305 L10,216.7305 L10,199.4199 " fill="#EEEEEE" style="stroke:#000000;stroke-width:1.5;"/><rect fill="none" height="162.5078" style="stroke:#000000;stroke-width:1.5;" width="699.75" x="10" y="199.4199"/><text fill="#000000" font-family="sans-serif" font-size="13" font-weight="bold" lengthAdjust="spacing" textLength="17.1387" x="25" y="212.9883">alt</text><text fill="#000000" font-family="sans-serif" font-size="11" font-weight="bold" lengthAdjust="spacing" textLength="192.2852" x="87.1387" y="212.0547">[User selects a specific campaign]</text><polygon fill="#181818" points="467.3477,234.041,477.3477,238.041,467.3477,242.041,471.3477,238.041" style="stroke:#181818;stroke-width:1.0;"/><line style="stroke:#181818;stroke-width:1.0;" x1="70.1338" x2="473.3477" y1="238.041" y2="238.041"/><text fill="#000000" font-family="sans-serif" font-size="13" lengthAdjust="spacing" textLength="102.1465" x="77.1338" y="233.2988">Select campaign</text><line style="stroke:#181818;stroke-width:1.0;" x1="479.3477" x2="521.3477" y1="267.3516" y2="267.3516"/><line style="stroke:#181818;stroke-width:1.0;" x1="521.3477" x2="521.3477" y1="267.3516" y2="280.3516"/><line style="stroke:#181818;stroke-width:1.0;" x1="480.3477" x2="521.3477" y1="280.3516" y2="280.3516"/><polygon fill="#181818" points="490.3477,276.3516,480.3477,280.3516,490.3477,284.3516,486.3477,280.3516" style="stroke:#181818;stroke-width:1.0;"/><text fill="#000000" font-family="sans-serif" font-size="13" lengthAdjust="spacing" textLength="211.4023" x="486.3477" y="262.6094">Load campaign performance data</text><polygon fill="#181818" points="81.1338,305.6621,71.1338,309.6621,81.1338,313.6621,77.1338,309.6621" style="stroke:#181818;stroke-width:1.0;"/><line style="stroke:#181818;stroke-width:1.0;" x1="75.1338" x2="478.3477" y1="309.6621" y2="309.6621"/><text fill="#000000" font-family="sans-serif" font-size="13" lengthAdjust="spacing" textLength="201.6143" x="87.1338" y="304.9199">Display selected campaign stats</text><line style="stroke:#000000;stroke-width:1.0;stroke-dasharray:2.0,2.0;" x1="10" x2="709.75" y1="318.6621" y2="318.6621"/><text fill="#000000" font-family="sans-serif" font-size="11" font-weight="bold" lengthAdjust="spacing" textLength="154.1719" x="15" y="329.2969">[User exports overall stats]</text><polygon fill="#181818" points="467.3477,349.9277,477.3477,353.9277,467.3477,357.9277,471.3477,353.9277" style="stroke:#181818;stroke-width:1.0;"/><line style="stroke:#181818;stroke-width:1.0;" x1="70.1338" x2="473.3477" y1="353.9277" y2="353.9277"/><text fill="#000000" font-family="sans-serif" font-size="13" lengthAdjust="spacing" textLength="182.7808" x="77.1338" y="349.1855">Leave default (all campaigns)</text><polygon fill="#181818" points="467.3477,386.2383,477.3477,390.2383,467.3477,394.2383,471.3477,390.2383" style="stroke:#181818;stroke-width:1.0;"/><line style="stroke:#181818;stroke-width:1.0;" x1="70.1338" x2="473.3477" y1="390.2383" y2="390.2383"/><text fill="#000000" font-family="sans-serif" font-size="13" lengthAdjust="spacing" textLength="122.3892" x="77.1338" y="385.4961">Click Export button</text><line style="stroke:#181818;stroke-width:1.0;" x1="479.3477" x2="521.3477" y1="419.5488" y2="419.5488"/><line style="stroke:#181818;stroke-width:1.0;" x1="521.3477" x2="521.3477" y1="419.5488" y2="432.5488"/><line style="stroke:#181818;stroke-width:1.0;" x1="480.3477" x2="521.3477" y1="432.5488" y2="432.5488"/><polygon fill="#181818" points="490.3477,428.5488,480.3477,432.5488,490.3477,436.5488,486.3477,432.5488" style="stroke:#181818;stroke-width:1.0;"/><text fill="#000000" font-family="sans-serif" font-size="13" lengthAdjust="spacing" textLength="80.2026" x="486.3477" y="414.8066">Generate file</text><path d="M10,447.5488 L72.1387,447.5488 L72.1387,454.8594 L62.1387,464.8594 L10,464.8594 L10,447.5488 " fill="#EEEEEE" style="stroke:#000000;stroke-width:1.5;"/><rect fill="none" height="90.8867" style="stroke:#000000;stroke-width:1.5;" width="499.9888" x="10" y="447.5488"/><text fill="#000000" font-family="sans-serif" font-size="13" font-weight="bold" lengthAdjust="spacing" textLength="17.1387" x="25" y="461.1172">alt</text><text fill="#000000" font-family="sans-serif" font-size="11" font-weight="bold" lengthAdjust="spacing" textLength="133.2461" x="87.1387" y="460.1836">[Generation successful]</text><polygon fill="#181818" points="81.1338,482.1699,71.1338,486.1699,81.1338,490.1699,77.1338,486.1699" style="stroke:#181818;stroke-width:1.0;"/><line style="stroke:#181818;stroke-width:1.0;" x1="75.1338" x2="478.3477" y1="486.1699" y2="486.1699"/><text fill="#000000" font-family="sans-serif" font-size="13" lengthAdjust="spacing" textLength="151.6709" x="87.1338" y="481.4277">Prompt download of file</text><line style="stroke:#000000;stroke-width:1.0;stroke-dasharray:2.0,2.0;" x1="10" x2="509.9888" y1="495.1699" y2="495.1699"/><text fill="#000000" font-family="sans-serif" font-size="11" font-weight="bold" lengthAdjust="spacing" textLength="105.7622" x="15" y="505.8047">[Generation failed]</text><polygon fill="#181818" points="81.1338,526.4355,71.1338,530.4355,81.1338,534.4355,77.1338,530.4355" style="stroke:#181818;stroke-width:1.0;"/><line style="stroke:#181818;stroke-width:1.0;" x1="75.1338" x2="478.3477" y1="530.4355" y2="530.4355"/><text fill="#000000" font-family="sans-serif" font-size="13" lengthAdjust="spacing" textLength="385.2139" x="87.1338" y="525.6934">Show &#8220;Unable to generate file. Please retry.&#8221; and Retry option</text><!--SRC=[TL91RW8n3Bpd5HQdzb0UmA5IHQjU4495FC1adMtK44T95jWR3sa_nqkQP0iD4dkCCnxFZ8qoieSvxnpQVXF82r4zuEaPNfo36InnhrkC195XieuOmmGSjYJoznNrGT5hsXFmdZmQ0o4Z0Mq34XEhRYqO7UAbgnurWrSTdC7-NbCWGp9gjh3ben1e8fIcePx041n9hRIyzWY0kqxMfQM6tLXOC5Pp7Nd5VeTM4ZGOyHyz8hsGKwqycn5a0WsAwUZO9yKt2OrfNH2cC1jIs2N73nb_8GwFWcmpigsvqV8Btiees7OnihrTr3lPD3wjKsb3C0JwLyiXXqvA2a5rPipmogTdX8OFrkJ4M1MgmMZ5f31Lcp6MzISVu7pwtbZScd9RRIri2Yj3c0Xzkgj-UZxzbAl8LzO3kpoWXF0B]--></g></svg>