<?plantuml 1.2026.2?><svg xmlns="http://www.w3.org/2000/svg" xmlns:xlink="http://www.w3.org/1999/xlink" contentStyleType="text/css" data-diagram-type="SEQUENCE" height="715px" preserveAspectRatio="none" style="width:991px;height:715px;background:#FFFFFF;" version="1.1" viewBox="0 0 991 715" width="991px" zoomAndPan="magnify"><defs/><g><rect fill="none" height="430.9023" style="stroke:#000000;stroke-width:1.5;" width="974.6953" x="10" y="186.4199"/><rect fill="none" height="90.8867" style="stroke:#000000;stroke-width:1.5;" width="498.6694" x="20" y="240.041"/><rect fill="none" height="149.5078" style="stroke:#000000;stroke-width:1.5;" width="754.1909" x="20" y="416.5488"/><g class="participant-lifeline" data-entity-uid="part1" data-qualified-name="Company" id="part1-lifeline"><g><title>Company</title><rect fill="#000000" fill-opacity="0.00000" height="552.834" width="8" x="60.9512" y="81.4883"/><line style="stroke:#181818;stroke-width:0.5;stroke-dasharray:5,5;" x1="64" x2="64" y1="81.4883" y2="634.3223"/></g></g><g class="participant-lifeline" data-entity-uid="part2" data-qualified-name="App" id="part2-lifeline"><g><title>App</title><rect fill="#000000" fill-opacity="0.00000" height="552.834" width="8" x="484.0283" y="81.4883"/><line style="stroke:#181818;stroke-width:0.5;stroke-dasharray:5,5;" x1="487.3872" x2="487.3872" y1="81.4883" y2="634.3223"/></g></g><g class="participant-lifeline" data-entity-uid="part3" data-qualified-name="Backend" id="part3-lifeline"><g><title>Backend</title><rect fill="#000000" fill-opacity="0.00000" height="552.834" width="8" x="724.9722" y="81.4883"/><line style="stroke:#181818;stroke-width:0.5;stroke-dasharray:5,5;" x1="728.7534" x2="728.7534" y1="81.4883" y2="634.3223"/></g></g><g class="participant participant-head" data-entity-uid="part1" data-qualified-name="Company" id="part1-head"><text fill="#000000" font-family="sans-serif" font-size="14" lengthAdjust="spacing" textLength="63.9023" x="30" y="78.5352">Company</text><ellipse cx="64.9512" cy="13.5" fill="#E2E2F0" rx="8" ry="8" style="stroke:#181818;stroke-width:0.5;"/><path d="M64.9512,21.5 L64.9512,48.5 M51.9512,29.5 L77.9512,29.5 M64.9512,48.5 L51.9512,63.5 M64.9512,48.5 L77.9512,63.5" fill="none" style="stroke:#181818;stroke-width:0.5;"/></g><g class="participant participant-tail" data-entity-uid="part1" data-qualified-name="Company" id="part1-tail"><text fill="#000000" font-family="sans-serif" font-size="14" lengthAdjust="spacing" textLength="63.9023" x="30" y="646.8574">Company</text><ellipse cx="64.9512" cy="658.3105" fill="#E2E2F0" rx="8" ry="8" style="stroke:#181818;stroke-width:0.5;"/><path d="M64.9512,666.3105 L64.9512,693.3105 M51.9512,674.3105 L77.9512,674.3105 M64.9512,693.3105 L51.9512,708.3105 M64.9512,693.3105 L77.9512,708.3105" fill="none" style="stroke:#181818;stroke-width:0.5;"/></g><g class="participant participant-head" data-entity-uid="part2" data-qualified-name="App" id="part2-head"><rect fill="#E2E2F0" height="30.4883" rx="2.5" ry="2.5" style="stroke:#181818;stroke-width:0.5;" width="41.2822" x="467.3872" y="50"/><text fill="#000000" font-family="sans-serif" font-size="14" lengthAdjust="spacing" textLength="27.2822" x="474.3872" y="70.5352">App</text></g><g class="participant participant-tail" data-entity-uid="part2" data-qualified-name="App" id="part2-tail"><rect fill="#E2E2F0" height="30.4883" rx="2.5" ry="2.5" style="stroke:#181818;stroke-width:0.5;" width="41.2822" x="467.3872" y="633.3223"/><text fill="#000000" font-family="sans-serif" font-size="14" lengthAdjust="spacing" textLength="27.2822" x="474.3872" y="653.8574">App</text></g><g class="participant participant-head" data-entity-uid="part3" data-qualified-name="Backend" id="part3-head"><rect fill="#E2E2F0" height="30.4883" rx="2.5" ry="2.5" style="stroke:#181818;stroke-width:0.5;" width="70.4375" x="693.7534" y="50"/><text fill="#000000" font-family="sans-serif" font-size="14" lengthAdjust="spacing" textLength="56.4375" x="700.7534" y="70.5352">Backend</text></g><g class="participant participant-tail" data-entity-uid="part3" data-qualified-name="Backend" id="part3-tail"><rect fill="#E2E2F0" height="30.4883" rx="2.5" ry="2.5" style="stroke:#181818;stroke-width:0.5;" width="70.4375" x="693.7534" y="633.3223"/><text fill="#000000" font-family="sans-serif" font-size="14" lengthAdjust="spacing" textLength="56.4375" x="700.7534" y="653.8574">Backend</text></g><g class="message" data-entity-1="part1" data-entity-2="part2" id="msg1"><polygon fill="#181818" points="476.0283,108.7988,486.0283,112.7988,476.0283,116.7988,480.0283,112.7988" style="stroke:#181818;stroke-width:1;"/><line style="stroke:#181818;stroke-width:1;" x1="64.9512" x2="482.0283" y1="112.7988" y2="112.7988"/><text fill="#000000" font-family="sans-serif" font-size="13" lengthAdjust="spacing" textLength="237.8721" x="71.9512" y="108.0566">Navigate to "Stats" or campaign detail</text></g><g class="message" data-entity-1="part2" data-entity-2="part3" id="msg2"><polygon fill="#181818" points="716.9722,138.1094,726.9722,142.1094,716.9722,146.1094,720.9722,142.1094" style="stroke:#181818;stroke-width:1;"/><line style="stroke:#181818;stroke-width:1;" x1="488.0283" x2="722.9722" y1="142.1094" y2="142.1094"/><text fill="#000000" font-family="sans-serif" font-size="13" lengthAdjust="spacing" textLength="149.8999" x="495.0283" y="137.3672">Fetch campaign metrics</text></g><g class="message" data-entity-1="part3" data-entity-2="part2" id="msg3"><polygon fill="#181818" points="499.0283,167.4199,489.0283,171.4199,499.0283,175.4199,495.0283,171.4199" style="stroke:#181818;stroke-width:1;"/><line style="stroke:#181818;stroke-width:1;" x1="493.0283" x2="727.9722" y1="171.4199" y2="171.4199"/><text fill="#000000" font-family="sans-serif" font-size="13" lengthAdjust="spacing" textLength="45.665" x="505.0283" y="166.6777">Metrics</text></g><path d="M10,186.4199 L72.1387,186.4199 L72.1387,193.7305 L62.1387,203.7305 L10,203.7305 L10,186.4199" fill="#EEEEEE" style="stroke:#000000;stroke-width:1.5;"/><rect fill="none" height="430.9023" style="stroke:#000000;stroke-width:1.5;" width="974.6953" x="10" y="186.4199"/><text fill="#000000" font-family="sans-serif" font-size="13" font-weight="bold" lengthAdjust="spacing" textLength="17.1387" x="25" y="199.9883">alt</text><text fill="#000000" font-family="sans-serif" font-size="11" font-weight="bold" lengthAdjust="spacing" textLength="88.2847" x="87.1387" y="199.0547">[Data available]</text><g class="message" data-entity-1="part1" data-entity-2="part2" id="msg4"><polygon fill="#181818" points="476.0283,221.041,486.0283,225.041,476.0283,229.041,480.0283,225.041" style="stroke:#181818;stroke-width:1;"/><line style="stroke:#181818;stroke-width:1;" x1="64.9512" x2="482.0283" y1="225.041" y2="225.041"/><text fill="#000000" font-family="sans-serif" font-size="13" lengthAdjust="spacing" textLength="133.3896" x="71.9512" y="220.2988">Choose export scope</text></g><path d="M20,240.041 L82.1387,240.041 L82.1387,247.3516 L72.1387,257.3516 L20,257.3516 L20,240.041" fill="#EEEEEE" style="stroke:#000000;stroke-width:1.5;"/><rect fill="none" height="90.8867" style="stroke:#000000;stroke-width:1.5;" width="498.6694" x="20" y="240.041"/><text fill="#000000" font-family="sans-serif" font-size="13" font-weight="bold" lengthAdjust="spacing" textLength="17.1387" x="35" y="253.6094">alt</text><text fill="#000000" font-family="sans-serif" font-size="11" font-weight="bold" lengthAdjust="spacing" textLength="100.9443" x="97.1387" y="252.6758">[Single campaign]</text><g class="message" data-entity-1="part1" data-entity-2="part2" id="msg5"><polygon fill="#181818" points="476.0283,274.6621,486.0283,278.6621,476.0283,282.6621,480.0283,278.6621" style="stroke:#181818;stroke-width:1;"/><line style="stroke:#181818;stroke-width:1;" x1="64.9512" x2="482.0283" y1="278.6621" y2="278.6621"/><text fill="#000000" font-family="sans-serif" font-size="13" lengthAdjust="spacing" textLength="194.6191" x="71.9512" y="273.9199">Select campaign + click Export</text></g><line style="stroke:#000000;stroke-width:1;stroke-dasharray:2,2;" x1="20" x2="518.6694" y1="287.6621" y2="287.6621"/><text fill="#000000" font-family="sans-serif" font-size="11" font-weight="bold" lengthAdjust="spacing" textLength="88.0537" x="25" y="298.2969">[All campaigns]</text><g class="message" data-entity-1="part1" data-entity-2="part2" id="msg6"><polygon fill="#181818" points="476.0283,318.9277,486.0283,322.9277,476.0283,326.9277,480.0283,322.9277" style="stroke:#181818;stroke-width:1;"/><line style="stroke:#181818;stroke-width:1;" x1="64.9512" x2="482.0283" y1="322.9277" y2="322.9277"/><text fill="#000000" font-family="sans-serif" font-size="13" lengthAdjust="spacing" textLength="195.73" x="71.9512" y="318.1855">Click Export on aggregate view</text></g><g class="message" data-entity-1="part2" data-entity-2="part3" id="msg7"><polygon fill="#181818" points="716.9722,355.2383,726.9722,359.2383,716.9722,363.2383,720.9722,359.2383" style="stroke:#181818;stroke-width:1;"/><line style="stroke:#181818;stroke-width:1;" x1="488.0283" x2="722.9722" y1="359.2383" y2="359.2383"/><text fill="#000000" font-family="sans-serif" font-size="13" lengthAdjust="spacing" textLength="173.9956" x="495.0283" y="354.4961">Request CSV export (scope)</text></g><g class="message" data-entity-1="part3" data-entity-2="part3" id="msg8"><line style="stroke:#181818;stroke-width:1;" x1="728.9722" x2="770.9722" y1="388.5488" y2="388.5488"/><line style="stroke:#181818;stroke-width:1;" x1="770.9722" x2="770.9722" y1="388.5488" y2="401.5488"/><line style="stroke:#181818;stroke-width:1;" x1="729.9722" x2="770.9722" y1="401.5488" y2="401.5488"/><polygon fill="#181818" points="739.9722,397.5488,729.9722,401.5488,739.9722,405.5488,735.9722,401.5488" style="stroke:#181818;stroke-width:1;"/><text fill="#000000" font-family="sans-serif" font-size="13" lengthAdjust="spacing" textLength="236.7231" x="735.9722" y="383.8066">Generate CSV encoded in UTF-8 (C.8)</text></g><path d="M20,416.5488 L82.1387,416.5488 L82.1387,423.8594 L72.1387,433.8594 L20,433.8594 L20,416.5488" fill="#EEEEEE" style="stroke:#000000;stroke-width:1.5;"/><rect fill="none" height="149.5078" style="stroke:#000000;stroke-width:1.5;" width="754.1909" x="20" y="416.5488"/><text fill="#000000" font-family="sans-serif" font-size="13" font-weight="bold" lengthAdjust="spacing" textLength="17.1387" x="35" y="430.1172">alt</text><text fill="#000000" font-family="sans-serif" font-size="11" font-weight="bold" lengthAdjust="spacing" textLength="133.2461" x="97.1387" y="429.1836">[Generation successful]</text><g class="message" data-entity-1="part3" data-entity-2="part2" id="msg9"><polygon fill="#181818" points="499.0283,451.1699,489.0283,455.1699,499.0283,459.1699,495.0283,455.1699" style="stroke:#181818;stroke-width:1;"/><line style="stroke:#181818;stroke-width:1;" x1="493.0283" x2="727.9722" y1="455.1699" y2="455.1699"/><text fill="#000000" font-family="sans-serif" font-size="13" lengthAdjust="spacing" textLength="216.9438" x="505.0283" y="450.4277">CSV file (text/csv; charset=UTF-8)</text></g><g class="message" data-entity-1="part2" data-entity-2="part1" id="msg10"><polygon fill="#181818" points="75.9512,480.4805,65.9512,484.4805,75.9512,488.4805,71.9512,484.4805" style="stroke:#181818;stroke-width:1;"/><line style="stroke:#181818;stroke-width:1;" x1="69.9512" x2="487.0283" y1="484.4805" y2="484.4805"/><text fill="#000000" font-family="sans-serif" font-size="13" lengthAdjust="spacing" textLength="155.105" x="81.9512" y="479.7383">Deliver file for download</text></g><line style="stroke:#000000;stroke-width:1;stroke-dasharray:2,2;" x1="20" x2="774.1909" y1="493.4805" y2="493.4805"/><text fill="#000000" font-family="sans-serif" font-size="11" font-weight="bold" lengthAdjust="spacing" textLength="105.7622" x="25" y="504.1152">[Generation failed]</text><g class="message" data-entity-1="part3" data-entity-2="part2" id="msg11"><polygon fill="#181818" points="499.0283,524.7461,489.0283,528.7461,499.0283,532.7461,495.0283,528.7461" style="stroke:#181818;stroke-width:1;"/><line style="stroke:#181818;stroke-width:1;" x1="493.0283" x2="727.9722" y1="528.7461" y2="528.7461"/><text fill="#000000" font-family="sans-serif" font-size="13" lengthAdjust="spacing" textLength="30.9893" x="505.0283" y="524.0039">Error</text></g><g class="message" data-entity-1="part2" data-entity-2="part1" id="msg12"><polygon fill="#181818" points="75.9512,554.0566,65.9512,558.0566,75.9512,562.0566,71.9512,558.0566" style="stroke:#181818;stroke-width:1;"/><line style="stroke:#181818;stroke-width:1;" x1="69.9512" x2="487.0283" y1="558.0566" y2="558.0566"/><text fill="#000000" font-family="sans-serif" font-size="13" lengthAdjust="spacing" textLength="348.5688" x="81.9512" y="553.3145">Show "Unable to generate export. Please retry." + Retry</text></g><line style="stroke:#000000;stroke-width:1;stroke-dasharray:2,2;" x1="10" x2="984.6953" y1="574.0566" y2="574.0566"/><text fill="#000000" font-family="sans-serif" font-size="11" font-weight="bold" lengthAdjust="spacing" textLength="107.3896" x="15" y="584.6914">[No data to export]</text><g class="message" data-entity-1="part2" data-entity-2="part1" id="msg13"><polygon fill="#181818" points="75.9512,605.3223,65.9512,609.3223,75.9512,613.3223,71.9512,609.3223" style="stroke:#181818;stroke-width:1;"/><line style="stroke:#181818;stroke-width:1;" x1="69.9512" x2="487.0283" y1="609.3223" y2="609.3223"/><text fill="#000000" font-family="sans-serif" font-size="13" lengthAdjust="spacing" textLength="399.0771" x="81.9512" y="604.5801">Disable Export button with tooltip "No data available to export"</text></g><?plantuml-src TLBBJkim4DtdAqPPjKBqRX4894ZXhYv21DWFzZInC7QkFKtXxncxULGgpIfApclE32hs0Ih_sQ7xBehX1SvluBRhu18UiJSDCW5xA6j6ZYK8GQ7WJED04wEnHG8BvmxL1pajl0TYrSwmJ-9WL2n6mAJ_R_XHe6LO8oDWBuBuRga0UOu2LQttaO2-EXyOel8T5HcP16hZ6akJRVx-gqfDbXJF-Sv0MQC-u3xBPXvPiRcrTWB5qtBL0Hcy0soQGBcstj1kB-VqFkTHLS_qVqkHeQhVnh4MUQvbnXzKDdF-agEGz3F9AQz9Wt7m-l9mVW6BQdMnd5iPm4Q2nQrI5EDcQwTXZbQI93T6QbmmVV4V5VihK2s6I7oTzPSJTvXbxECIrcHDJs7FtyYXQBzprgEUApr8iv5DapwTv3u47qwRrQtVGVdgqh6a-sp6KlOjhk394efZa1lxNfMovEVqDgyZvtdqeDFTYG3Dsp-UpCJiCopvVSii4-mCjyBqbaq7vIWrdV0iMXR9yGS0?></g></svg>